M48
;Layer_Color=9474304
;FILE_FORMAT=2:5
INCH,LZ
;TYPE=PLATED
T1F00S00C0.01200
T2F00S00C0.02756
T3F00S00C0.03000
T4F00S00C0.03346
T5F00S00C0.03543
T6F00S00C0.03937
T7F00S00C0.04016
%
T01
X0272132Y0036056
X0184174Y0029571
X00975Y0073
X0021Y00535
X0032Y0098
X00375Y0127
X0337Y0169
T02
X0217Y0029
Y0039
X0237
Y0029
X02165Y00605
Y00705
X0191Y0038
Y0028
X00845Y0034
Y0044
Y0054
X0329Y01175
X0339
Y01355
X0329
T03
X003575Y0168875
X0043Y01685
X005075Y0168375
X0259972Y0170528
X02895Y0141
X0259972Y0111472
T04
X02025Y005
Y009
X00805Y01305
Y01705
T05
X001Y011
Y012
Y013
Y014
X0279Y0095
Y0085
X0315Y019
X0325
X0335
X0345
T06
X0129Y01265
X0148685
X0165Y0151
X0175
X0185
X01135Y0152
Y0160976
Y0143024
T07
X03375Y00615
X0139Y0172
X03375Y00845
M30
