G04*
G04 #@! TF.GenerationSoftware,Altium Limited,Altium Designer,21.8.1 (53)*
G04*
G04 Layer_Color=255*
%FSLAX44Y44*%
%MOMM*%
G71*
G04*
G04 #@! TF.SameCoordinates,18E747F8-F2A1-401C-BF7A-ED7554101EA9*
G04*
G04*
G04 #@! TF.FilePolarity,Positive*
G04*
G01*
G75*
%ADD37C,1.5700*%
%ADD45C,1.2000*%
%ADD46R,1.2000X1.2000*%
%ADD47C,1.5240*%
%ADD48R,1.5240X1.5240*%
%ADD49C,1.6000*%
%ADD50R,1.6000X1.6000*%
%ADD51C,1.6000*%
%ADD52R,1.6000X1.6000*%
%ADD53C,1.5000*%
%ADD54R,1.5000X1.5000*%
%ADD55R,1.5000X1.5000*%
%ADD56C,1.4000*%
D37*
X353060Y436880D02*
D03*
X857250Y156210D02*
D03*
Y214630D02*
D03*
D45*
X485140Y96520D02*
D03*
Y71120D02*
D03*
X214630Y111760D02*
D03*
Y137160D02*
D03*
X861060Y344170D02*
D03*
X835660D02*
D03*
Y298450D02*
D03*
X861060D02*
D03*
X601980Y99060D02*
D03*
Y73660D02*
D03*
X551180D02*
D03*
Y99060D02*
D03*
X549910Y153670D02*
D03*
Y179070D02*
D03*
D46*
X214630Y86360D02*
D03*
D47*
X128905Y427673D02*
D03*
X109220Y427990D02*
D03*
X735330Y358140D02*
D03*
X660330Y433140D02*
D03*
Y283140D02*
D03*
D48*
X90805Y428942D02*
D03*
D49*
X288290Y408880D02*
D03*
Y386080D02*
D03*
D50*
Y363280D02*
D03*
D51*
X444500Y383540D02*
D03*
X469900D02*
D03*
D52*
X419100D02*
D03*
D53*
X800100Y482600D02*
D03*
X825500D02*
D03*
X850900D02*
D03*
X708660Y215900D02*
D03*
X327660Y321310D02*
D03*
X377660D02*
D03*
X25400Y330200D02*
D03*
Y279400D02*
D03*
Y304800D02*
D03*
D54*
X876300Y482600D02*
D03*
D55*
X708660Y241300D02*
D03*
X25400Y355600D02*
D03*
D56*
X514350Y127000D02*
D03*
Y228600D02*
D03*
X204470Y433070D02*
D03*
Y331470D02*
D03*
M02*
