G04*
G04 #@! TF.GenerationSoftware,Altium Limited,Altium Designer,21.8.1 (53)*
G04*
G04 Layer_Color=32768*
%FSLAX25Y25*%
%MOIN*%
G70*
G04*
G04 #@! TF.SameCoordinates,DFC464EB-1075-4BFE-916E-F93FBC4A2262*
G04*
G04*
G04 #@! TF.FilePolarity,Positive*
G04*
G01*
G75*
%ADD14C,0.00394*%
%ADD15C,0.00787*%
%ADD60C,0.00197*%
D14*
X179905Y34850D02*
Y41150D01*
X168095Y34850D02*
Y41150D01*
Y34850D02*
X179905D01*
X168095Y41150D02*
X179905D01*
X172031Y38000D02*
X175969D01*
X174000Y36031D02*
Y39968D01*
X187350Y93405D02*
X193650D01*
X187350Y81595D02*
X193650D01*
Y93405D01*
X187350Y81595D02*
Y93405D01*
X190500Y85532D02*
Y89468D01*
X188531Y87500D02*
X192469D01*
X113031D02*
X116969D01*
X115000Y85532D02*
Y89468D01*
X111850Y81595D02*
Y93405D01*
X118150Y81595D02*
Y93405D01*
X111850Y81595D02*
X118150D01*
X111850Y93405D02*
X118150D01*
X40031Y52500D02*
X43968D01*
X42000Y50532D02*
Y54469D01*
X54992Y37539D02*
Y67461D01*
X29008Y37539D02*
Y67461D01*
Y37539D02*
X54992D01*
X29008Y67461D02*
X54992D01*
X113500Y150031D02*
Y153969D01*
X111531Y152000D02*
X115469D01*
X175000Y149031D02*
Y152969D01*
X173031Y151000D02*
X176969D01*
X290531Y89000D02*
X294468D01*
X292500Y87032D02*
Y90969D01*
X295650Y83095D02*
Y94906D01*
X289350Y83095D02*
Y94906D01*
X295650D01*
X289350Y83095D02*
X295650D01*
X275791Y35161D02*
Y67839D01*
Y35161D02*
X312209D01*
Y67839D01*
X275791D02*
X312209D01*
X111850Y40905D02*
X118150D01*
X111850Y29094D02*
X118150D01*
Y40905D01*
X111850Y29094D02*
Y40905D01*
X115000Y33031D02*
Y36968D01*
X113031Y35000D02*
X116969D01*
D15*
X154197Y126500D02*
G03*
X154197Y126500I-15354J0D01*
G01*
X138842Y124531D02*
Y128469D01*
X136874Y126500D02*
X140811D01*
D60*
X153248Y143441D02*
X196752D01*
X153248Y163913D02*
X196752D01*
X153248Y143441D02*
Y163913D01*
X196752Y143441D02*
Y163913D01*
M02*
