G04*
G04 #@! TF.GenerationSoftware,Altium Limited,Altium Designer,22.7.1 (60)*
G04*
G04 Layer_Color=32896*
%FSLAX44Y44*%
%MOMM*%
G71*
G04*
G04 #@! TF.SameCoordinates,9849E2FD-7F07-45F3-A7E4-9B4BFC9397C6*
G04*
G04*
G04 #@! TF.FilePolarity,Positive*
G04*
G01*
G75*
%ADD12C,0.2540*%
%ADD14C,0.1000*%
%ADD58C,0.1524*%
D12*
X-30480Y279400D02*
X-25400Y264160D01*
X-35560D02*
X-30480Y279400D01*
X-35560Y15240D02*
X-30480Y0D01*
X-25400Y15240D01*
X-30480Y186675D02*
Y279400D01*
Y0D02*
Y84597D01*
X-33020Y279400D02*
X14344D01*
X-33020Y0D02*
X0D01*
D14*
X671410Y79310D02*
Y182310D01*
Y79310D02*
X822110D01*
Y182310D01*
X671410D02*
X822110D01*
D58*
X-21339Y88661D02*
Y93740D01*
Y91200D01*
X-36574D01*
X-34034Y88661D01*
X-21339Y101357D02*
Y106435D01*
Y103896D01*
X-36574D01*
X-34034Y101357D01*
Y114053D02*
X-36574Y116592D01*
Y121671D01*
X-34034Y124210D01*
X-23878D01*
X-21339Y121671D01*
Y116592D01*
X-23878Y114053D01*
X-34034D01*
Y129288D02*
X-36574Y131827D01*
Y136906D01*
X-34034Y139445D01*
X-23878D01*
X-21339Y136906D01*
Y131827D01*
X-23878Y129288D01*
X-34034D01*
X-21339Y144523D02*
X-23878D01*
Y147062D01*
X-21339D01*
Y144523D01*
X-34034Y157219D02*
X-36574Y159758D01*
Y164837D01*
X-34034Y167376D01*
X-23878D01*
X-21339Y164837D01*
Y159758D01*
X-23878Y157219D01*
X-34034D01*
Y172454D02*
X-36574Y174993D01*
Y180072D01*
X-34034Y182611D01*
X-23878D01*
X-21339Y180072D01*
Y174993D01*
X-23878Y172454D01*
X-34034D01*
M02*
