G04*
G04 #@! TF.GenerationSoftware,Altium Limited,Altium Designer,22.7.1 (60)*
G04*
G04 Layer_Color=16711935*
%FSLAX44Y44*%
%MOMM*%
G71*
G04*
G04 #@! TF.SameCoordinates,9849E2FD-7F07-45F3-A7E4-9B4BFC9397C6*
G04*
G04*
G04 #@! TF.FilePolarity,Negative*
G04*
G01*
G75*
%ADD29R,1.4032X1.4032*%
%ADD30C,1.4032*%
%ADD31C,1.7272*%
%ADD32R,1.7272X1.7272*%
%ADD33C,1.8032*%
%ADD34R,1.8032X1.8032*%
%ADD35C,1.8032*%
%ADD36R,1.8032X1.8032*%
%ADD37C,1.5700*%
%ADD38C,1.7032*%
%ADD39R,1.7032X1.7032*%
%ADD40R,1.7032X1.7032*%
%ADD41C,1.6032*%
%ADD42C,0.8128*%
D29*
X214630Y86360D02*
D03*
D30*
Y111760D02*
D03*
Y137160D02*
D03*
X861060Y344170D02*
D03*
X835660D02*
D03*
Y298450D02*
D03*
X861060D02*
D03*
X601980Y99060D02*
D03*
Y73660D02*
D03*
X551180D02*
D03*
Y99060D02*
D03*
X485140Y71120D02*
D03*
Y96520D02*
D03*
X549910Y153670D02*
D03*
Y179070D02*
D03*
D31*
X128905Y427673D02*
D03*
X109220Y427990D02*
D03*
X735330Y358140D02*
D03*
X660330Y433140D02*
D03*
Y283140D02*
D03*
D32*
X90805Y428942D02*
D03*
D33*
X288290Y408880D02*
D03*
Y386080D02*
D03*
D34*
Y363280D02*
D03*
D35*
X444500Y383540D02*
D03*
X469900D02*
D03*
D36*
X419100D02*
D03*
D37*
X353060Y436880D02*
D03*
X857250Y156210D02*
D03*
Y214630D02*
D03*
D38*
X800100Y482600D02*
D03*
X825500D02*
D03*
X850900D02*
D03*
X708660Y215900D02*
D03*
X327660Y321310D02*
D03*
X377660D02*
D03*
X25400Y330200D02*
D03*
Y279400D02*
D03*
Y304800D02*
D03*
D39*
X876300Y482600D02*
D03*
D40*
X708660Y241300D02*
D03*
X25400Y355600D02*
D03*
D41*
X514350Y127000D02*
D03*
Y228600D02*
D03*
X204470Y433070D02*
D03*
Y331470D02*
D03*
D42*
X53340Y135890D02*
D03*
X81280Y248920D02*
D03*
X95250Y322580D02*
D03*
X855980Y429260D02*
D03*
X247650Y185420D02*
D03*
X467802Y75111D02*
D03*
X691215Y91582D02*
D03*
M02*
