G04*
G04 #@! TF.GenerationSoftware,Altium Limited,Altium Designer,21.8.1 (53)*
G04*
G04 Layer_Color=32768*
%FSLAX44Y44*%
%MOMM*%
G71*
G04*
G04 #@! TF.SameCoordinates,18E747F8-F2A1-401C-BF7A-ED7554101EA9*
G04*
G04*
G04 #@! TF.FilePolarity,Positive*
G04*
G01*
G75*
%ADD14C,0.1000*%
%ADD15C,0.2000*%
%ADD60C,0.0500*%
D14*
X456960Y88520D02*
Y104520D01*
X426960Y88520D02*
Y104520D01*
Y88520D02*
X456960D01*
X426960Y104520D02*
X456960D01*
X436960Y96520D02*
X446960D01*
X441960Y91520D02*
Y101520D01*
X475870Y237250D02*
X491870D01*
X475870Y207250D02*
X491870D01*
Y237250D01*
X475870Y207250D02*
Y237250D01*
X483870Y217250D02*
Y227250D01*
X478870Y222250D02*
X488870D01*
X287100D02*
X297100D01*
X292100Y217250D02*
Y227250D01*
X284100Y207250D02*
Y237250D01*
X300100Y207250D02*
Y237250D01*
X284100Y207250D02*
X300100D01*
X284100Y237250D02*
X300100D01*
X101680Y133350D02*
X111680D01*
X106680Y128350D02*
Y138350D01*
X139680Y95350D02*
Y171350D01*
X73680Y95350D02*
Y171350D01*
Y95350D02*
X139680D01*
X73680Y171350D02*
X139680D01*
X288290Y381080D02*
Y391080D01*
X283290Y386080D02*
X293290D01*
X444500Y378540D02*
Y388540D01*
X439500Y383540D02*
X449500D01*
X737950Y226060D02*
X747950D01*
X742950Y221060D02*
Y231060D01*
X750950Y211060D02*
Y241060D01*
X734950Y211060D02*
Y241060D01*
X750950D01*
X734950Y211060D02*
X750950D01*
X700510Y89310D02*
Y172310D01*
Y89310D02*
X793010D01*
Y172310D01*
X700510D02*
X793010D01*
X284100Y103900D02*
X300100D01*
X284100Y73900D02*
X300100D01*
Y103900D01*
X284100Y73900D02*
Y103900D01*
X292100Y83900D02*
Y93900D01*
X287100Y88900D02*
X297100D01*
D15*
X391660Y321310D02*
G03*
X391660Y321310I-39000J0D01*
G01*
X352660Y316310D02*
Y326310D01*
X347660Y321310D02*
X357660D01*
D60*
X389250Y364340D02*
X499750D01*
X389250Y416340D02*
X499750D01*
X389250Y364340D02*
Y416340D01*
X499750Y364340D02*
Y416340D01*
M02*
