G04*
G04 #@! TF.GenerationSoftware,Altium Limited,Altium Designer,21.8.1 (53)*
G04*
G04 Layer_Color=8421504*
%FSLAX25Y25*%
%MOIN*%
G70*
G04*
G04 #@! TF.SameCoordinates,DFC464EB-1075-4BFE-916E-F93FBC4A2262*
G04*
G04*
G04 #@! TF.FilePolarity,Positive*
G04*
G01*
G75*
%ADD16R,0.06000X0.03000*%
%ADD17R,0.02000X0.06000*%
%ADD18R,0.03000X0.06000*%
%ADD19R,0.04724X0.05512*%
%ADD20R,0.05512X0.04724*%
%ADD21R,0.04016X0.07008*%
%ADD22R,0.07205X0.04291*%
G36*
X34536Y46198D02*
X40361Y42892D01*
Y40692D01*
X35371Y40686D01*
X34536D01*
X34534Y40689D01*
X31567D01*
X30189Y42067D01*
Y46201D01*
X34534D01*
X34536Y46198D01*
D02*
G37*
G36*
X53800Y45900D02*
Y45065D01*
Y40735D01*
X48288D01*
Y45065D01*
X51595Y50890D01*
X53794D01*
X53800Y45900D01*
D02*
G37*
G36*
X35756Y60000D02*
X32450Y54175D01*
X30250D01*
X30244Y59165D01*
Y60000D01*
Y64331D01*
X35756D01*
Y60000D01*
D02*
G37*
G36*
X53831Y58744D02*
X49500D01*
X43675Y62050D01*
Y64250D01*
X48665Y64256D01*
X53831D01*
Y58744D01*
D02*
G37*
D16*
X35100Y42400D02*
D03*
X50700Y62600D02*
D03*
D03*
X35100Y42400D02*
D03*
D17*
X52000Y44500D02*
D03*
D03*
D18*
X31900Y61100D02*
D03*
D03*
D19*
X177150Y38000D02*
D03*
X170850D02*
D03*
D20*
X190500Y90650D02*
D03*
Y84350D02*
D03*
X115000D02*
D03*
Y90650D02*
D03*
X292500Y92150D02*
D03*
Y85850D02*
D03*
X115000Y38150D02*
D03*
Y31850D02*
D03*
D21*
X321996Y106500D02*
D03*
X329004D02*
D03*
D22*
X316126Y61500D02*
D03*
Y51500D02*
D03*
Y41500D02*
D03*
X271874D02*
D03*
Y51500D02*
D03*
Y61500D02*
D03*
M02*
