G04*
G04 #@! TF.GenerationSoftware,Altium Limited,Altium Designer,21.8.1 (53)*
G04*
G04 Layer_Color=65535*
%FSLAX44Y44*%
%MOMM*%
G71*
G04*
G04 #@! TF.SameCoordinates,18E747F8-F2A1-401C-BF7A-ED7554101EA9*
G04*
G04*
G04 #@! TF.FilePolarity,Positive*
G04*
G01*
G75*
%ADD10C,0.2500*%
%ADD11C,0.6000*%
%ADD12C,0.2540*%
%ADD13C,0.1500*%
%ADD14C,0.1000*%
%ADD15C,0.2000*%
D10*
X81930Y98100D02*
G03*
X81930Y98100I-1250J0D01*
G01*
X305540Y347580D02*
G03*
X305540Y347580I-1250J0D01*
G01*
X386250Y383540D02*
G03*
X386250Y383540I-1250J0D01*
G01*
D11*
X85680Y123350D02*
G03*
X85680Y123350I-0J0D01*
G01*
D12*
X133985Y408623D02*
G03*
X84455Y408623I-24765J18578D01*
G01*
X660330Y448240D02*
G03*
X660330Y269170I-653J-89535D01*
G01*
X84455Y408623D02*
X133985D01*
X660330Y269170D02*
X763200D01*
Y448240D01*
X660330D02*
X763200D01*
X407677Y125728D02*
Y110492D01*
X417833D01*
X430529D02*
Y125728D01*
X422912Y118110D01*
X433068D01*
X440686Y120649D02*
X445764D01*
X448303Y118110D01*
Y110492D01*
X440686D01*
X438147Y113032D01*
X440686Y115571D01*
X448303D01*
X444507Y255268D02*
Y240033D01*
X454663D01*
X459742Y252728D02*
X462281Y255268D01*
X467359D01*
X469898Y252728D01*
Y250189D01*
X467359Y247650D01*
X464820D01*
X467359D01*
X469898Y245111D01*
Y242572D01*
X467359Y240033D01*
X462281D01*
X459742Y242572D01*
X474977Y255268D02*
Y240033D01*
X482594D01*
X485133Y242572D01*
Y245111D01*
Y247650D01*
X482594Y250189D01*
X474977D01*
X484121Y130552D02*
X481581Y133091D01*
X476503D01*
X473964Y130552D01*
Y120395D01*
X476503Y117856D01*
X481581D01*
X484121Y120395D01*
X496817Y117856D02*
Y133091D01*
X489199Y125473D01*
X499356D01*
X286258Y260599D02*
Y245364D01*
X296415D01*
X301493Y258060D02*
X304032Y260599D01*
X309111D01*
X311650Y258060D01*
Y255521D01*
X309111Y252981D01*
X306571D01*
X309111D01*
X311650Y250442D01*
Y247903D01*
X309111Y245364D01*
X304032D01*
X301493Y247903D01*
X319267Y255521D02*
X324346D01*
X326885Y252981D01*
Y245364D01*
X319267D01*
X316728Y247903D01*
X319267Y250442D01*
X326885D01*
X824241Y142238D02*
X834398D01*
X829319D01*
Y127002D01*
X847094D02*
X842015D01*
X839476Y129542D01*
Y134620D01*
X842015Y137159D01*
X847094D01*
X849633Y134620D01*
Y132081D01*
X839476D01*
X854711Y127002D02*
X862329D01*
X864868Y129542D01*
X862329Y132081D01*
X857250D01*
X854711Y134620D01*
X857250Y137159D01*
X864868D01*
X872486Y139698D02*
Y137159D01*
X869946D01*
X875025D01*
X872486D01*
Y129542D01*
X875025Y127002D01*
X882642Y139698D02*
X885181Y142238D01*
X890260D01*
X892799Y139698D01*
Y137159D01*
X890260Y134620D01*
X887721D01*
X890260D01*
X892799Y132081D01*
Y129542D01*
X890260Y127002D01*
X885181D01*
X882642Y129542D01*
X822971Y248918D02*
X833128D01*
X828049D01*
Y233682D01*
X845824D02*
X840745D01*
X838206Y236222D01*
Y241300D01*
X840745Y243839D01*
X845824D01*
X848363Y241300D01*
Y238761D01*
X838206D01*
X853441Y233682D02*
X861059D01*
X863598Y236222D01*
X861059Y238761D01*
X855980D01*
X853441Y241300D01*
X855980Y243839D01*
X863598D01*
X871216Y246378D02*
Y243839D01*
X868676D01*
X873755D01*
X871216D01*
Y236222D01*
X873755Y233682D01*
X891529D02*
X881372D01*
X891529Y243839D01*
Y246378D01*
X888990Y248918D01*
X883911D01*
X881372Y246378D01*
X321320Y472438D02*
X331477D01*
X326399D01*
Y457202D01*
X344173D02*
X339095D01*
X336555Y459742D01*
Y464820D01*
X339095Y467359D01*
X344173D01*
X346712Y464820D01*
Y462281D01*
X336555D01*
X351790Y457202D02*
X359408D01*
X361947Y459742D01*
X359408Y462281D01*
X354330D01*
X351790Y464820D01*
X354330Y467359D01*
X361947D01*
X369565Y469898D02*
Y467359D01*
X367025D01*
X372104D01*
X369565D01*
Y459742D01*
X372104Y457202D01*
X379721D02*
X384800D01*
X382261D01*
Y472438D01*
X379721Y469898D01*
X186699Y41912D02*
Y57147D01*
X194317D01*
X196856Y54608D01*
Y49530D01*
X194317Y46990D01*
X186699D01*
X191777D02*
X196856Y41912D01*
X201934Y39373D02*
X212091D01*
X217169Y57147D02*
Y46990D01*
X222248Y41912D01*
X227326Y46990D01*
Y57147D01*
X232404D02*
Y41912D01*
X240022D01*
X242561Y44451D01*
Y54608D01*
X240022Y57147D01*
X232404D01*
X784864Y298447D02*
Y283213D01*
X795021D01*
X810256D02*
X800099D01*
X810256Y293369D01*
Y295908D01*
X807717Y298447D01*
X802638D01*
X800099Y295908D01*
X769617Y235836D02*
X754382D01*
Y225679D01*
X767078Y220601D02*
X756922Y210444D01*
Y220601D02*
X767078Y210444D01*
X762000Y220601D02*
Y210444D01*
X756922Y215522D02*
X767078D01*
X665483Y233678D02*
X660405D01*
X662944D01*
Y220982D01*
X660405Y218442D01*
X657866D01*
X655327Y220982D01*
X680718Y218442D02*
X670562D01*
X680718Y228599D01*
Y231138D01*
X678179Y233678D01*
X673101D01*
X670562Y231138D01*
X685797D02*
X695953Y220982D01*
X685797D02*
X695953Y231138D01*
X685797Y226060D02*
X695953D01*
X690875Y220982D02*
Y231138D01*
X16540Y193037D02*
X26697D01*
X21618D01*
Y177803D01*
X31775Y187959D02*
Y177803D01*
Y182881D01*
X34314Y185420D01*
X36853Y187959D01*
X39393D01*
X49549D02*
X54628D01*
X57167Y185420D01*
Y177803D01*
X49549D01*
X47010Y180342D01*
X49549Y182881D01*
X57167D01*
X62245Y177803D02*
Y187959D01*
X69863D01*
X72402Y185420D01*
Y177803D01*
X77480D02*
X85098D01*
X87637Y180342D01*
X85098Y182881D01*
X80020D01*
X77480Y185420D01*
X80020Y187959D01*
X87637D01*
X95254Y177803D02*
Y190498D01*
Y185420D01*
X92715D01*
X97794D01*
X95254D01*
Y190498D01*
X97794Y193037D01*
X107950Y177803D02*
X113029D01*
X115568Y180342D01*
Y185420D01*
X113029Y187959D01*
X107950D01*
X105411Y185420D01*
Y180342D01*
X107950Y177803D01*
X120646Y187959D02*
Y177803D01*
Y182881D01*
X123186Y185420D01*
X125725Y187959D01*
X128264D01*
X135881Y177803D02*
Y187959D01*
X138421D01*
X140960Y185420D01*
Y177803D01*
Y185420D01*
X143499Y187959D01*
X146038Y185420D01*
Y177803D01*
X158734D02*
X153656D01*
X151117Y180342D01*
Y185420D01*
X153656Y187959D01*
X158734D01*
X161273Y185420D01*
Y182881D01*
X151117D01*
X166352Y187959D02*
Y177803D01*
Y182881D01*
X168891Y185420D01*
X171430Y187959D01*
X173969D01*
X196822Y177803D02*
X201900D01*
X199361D01*
Y193037D01*
X196822Y190498D01*
X608361Y190497D02*
X618517D01*
X613439D01*
Y175263D01*
X623596Y185419D02*
Y175263D01*
Y180341D01*
X626135Y182880D01*
X628674Y185419D01*
X631213D01*
X641370D02*
X646449D01*
X648988Y182880D01*
Y175263D01*
X641370D01*
X638831Y177802D01*
X641370Y180341D01*
X648988D01*
X654066Y175263D02*
Y185419D01*
X661684D01*
X664223Y182880D01*
Y175263D01*
X669301D02*
X676919D01*
X679458Y177802D01*
X676919Y180341D01*
X671840D01*
X669301Y182880D01*
X671840Y185419D01*
X679458D01*
X687075Y175263D02*
Y187958D01*
Y182880D01*
X684536D01*
X689614D01*
X687075D01*
Y187958D01*
X689614Y190497D01*
X699771Y175263D02*
X704850D01*
X707389Y177802D01*
Y182880D01*
X704850Y185419D01*
X699771D01*
X697232Y182880D01*
Y177802D01*
X699771Y175263D01*
X712467Y185419D02*
Y175263D01*
Y180341D01*
X715006Y182880D01*
X717545Y185419D01*
X720085D01*
X727702Y175263D02*
Y185419D01*
X730241D01*
X732781Y182880D01*
Y175263D01*
Y182880D01*
X735320Y185419D01*
X737859Y182880D01*
Y175263D01*
X750555D02*
X745477D01*
X742937Y177802D01*
Y182880D01*
X745477Y185419D01*
X750555D01*
X753094Y182880D01*
Y180341D01*
X742937D01*
X758172Y185419D02*
Y175263D01*
Y180341D01*
X760712Y182880D01*
X763251Y185419D01*
X765790D01*
X798799Y175263D02*
X788643D01*
X798799Y185419D01*
Y187958D01*
X796260Y190497D01*
X791182D01*
X788643Y187958D01*
X505714Y244348D02*
Y259583D01*
X513331D01*
X515871Y257044D01*
Y251966D01*
X513331Y249426D01*
X505714D01*
X510792D02*
X515871Y244348D01*
X520949Y259583D02*
Y244348D01*
X531106D01*
X170183Y378462D02*
Y393698D01*
X177801D01*
X180340Y391158D01*
Y386080D01*
X177801Y383541D01*
X170183D01*
X175262D02*
X180340Y378462D01*
X185418D02*
X190497D01*
X187958D01*
Y393698D01*
X185418Y391158D01*
X271785Y435608D02*
X269246Y438148D01*
X264167D01*
X261628Y435608D01*
Y433069D01*
X264167Y430530D01*
X269246D01*
X271785Y427991D01*
Y425452D01*
X269246Y422912D01*
X264167D01*
X261628Y425452D01*
X287020Y435608D02*
X284481Y438148D01*
X279403D01*
X276863Y435608D01*
Y425452D01*
X279403Y422912D01*
X284481D01*
X287020Y425452D01*
X292098Y422912D02*
Y438148D01*
X299716D01*
X302255Y435608D01*
Y430530D01*
X299716Y427991D01*
X292098D01*
X297177D02*
X302255Y422912D01*
X307333D02*
X312412D01*
X309873D01*
Y438148D01*
X307333Y435608D01*
X441961Y421642D02*
Y431798D01*
X439422Y434338D01*
X434343D01*
X431804Y431798D01*
Y421642D01*
X434343Y419103D01*
X439422D01*
X436883Y424181D02*
X441961Y419103D01*
X439422D02*
X441961Y421642D01*
X457196Y419103D02*
X447039D01*
X457196Y429259D01*
Y431798D01*
X454657Y434338D01*
X449578D01*
X447039Y431798D01*
X110490Y463552D02*
Y473708D01*
X107951Y476247D01*
X102872D01*
X100333Y473708D01*
Y463552D01*
X102872Y461012D01*
X107951D01*
X105412Y466091D02*
X110490Y461012D01*
X107951D02*
X110490Y463552D01*
X115568Y461012D02*
X120647D01*
X118108D01*
Y476247D01*
X115568Y473708D01*
X286258Y127249D02*
Y112014D01*
X296415D01*
X309111D02*
Y127249D01*
X301493Y119632D01*
X311650D01*
X316728Y127249D02*
Y112014D01*
X324346D01*
X326885Y114553D01*
Y117092D01*
Y119632D01*
X324346Y122171D01*
X316728D01*
X342903Y328927D02*
Y313692D01*
X353060D01*
X358138D02*
X363217D01*
X360678D01*
Y328927D01*
X358138Y326388D01*
X53343Y354328D02*
X48264D01*
X50804D01*
Y341632D01*
X48264Y339092D01*
X45725D01*
X43186Y341632D01*
X58421Y339092D02*
X63500D01*
X60960D01*
Y354328D01*
X58421Y351788D01*
X71117D02*
X73656Y354328D01*
X78735D01*
X81274Y351788D01*
Y349249D01*
X78735Y346710D01*
X81274Y344171D01*
Y341632D01*
X78735Y339092D01*
X73656D01*
X71117Y341632D01*
Y344171D01*
X73656Y346710D01*
X71117Y349249D01*
Y351788D01*
X73656Y346710D02*
X78735D01*
X857253Y462277D02*
X852175D01*
X854714D01*
Y449582D01*
X852175Y447043D01*
X849635D01*
X847096Y449582D01*
X862331Y447043D02*
X867410D01*
X864870D01*
Y462277D01*
X862331Y459738D01*
X875027Y462277D02*
X885184D01*
Y459738D01*
X875027Y449582D01*
Y447043D01*
X600961Y133092D02*
X598422Y135631D01*
X593343D01*
X590804Y133092D01*
Y122935D01*
X593343Y120396D01*
X598422D01*
X600961Y122935D01*
X616196Y135631D02*
X606039D01*
Y128013D01*
X611117Y130553D01*
X613657D01*
X616196Y128013D01*
Y122935D01*
X613657Y120396D01*
X608578D01*
X606039Y122935D01*
X621274Y135631D02*
Y120396D01*
X628892D01*
X631431Y122935D01*
Y125474D01*
Y128013D01*
X628892Y130553D01*
X621274D01*
X550161Y133092D02*
X547621Y135631D01*
X542543D01*
X540004Y133092D01*
Y122935D01*
X542543Y120396D01*
X547621D01*
X550161Y122935D01*
X565396Y135631D02*
X555239D01*
Y128013D01*
X560317Y130553D01*
X562857D01*
X565396Y128013D01*
Y122935D01*
X562857Y120396D01*
X557778D01*
X555239Y122935D01*
X573013Y130553D02*
X578092D01*
X580631Y128013D01*
Y120396D01*
X573013D01*
X570474Y122935D01*
X573013Y125474D01*
X580631D01*
X548891Y213102D02*
X546352Y215641D01*
X541273D01*
X538734Y213102D01*
Y202945D01*
X541273Y200406D01*
X546352D01*
X548891Y202945D01*
X553969Y213102D02*
X556508Y215641D01*
X561587D01*
X564126Y213102D01*
Y210563D01*
X561587Y208023D01*
X559047D01*
X561587D01*
X564126Y205484D01*
Y202945D01*
X561587Y200406D01*
X556508D01*
X553969Y202945D01*
X839473Y325118D02*
X836934Y327658D01*
X831856D01*
X829317Y325118D01*
Y314962D01*
X831856Y312423D01*
X836934D01*
X839473Y314962D01*
X854708Y312423D02*
X844552D01*
X854708Y322579D01*
Y325118D01*
X852169Y327658D01*
X847091D01*
X844552Y325118D01*
X859787Y327658D02*
Y312423D01*
X867404D01*
X869943Y314962D01*
Y317501D01*
Y320040D01*
X867404Y322579D01*
X859787D01*
X838203Y370838D02*
X835664Y373377D01*
X830586D01*
X828047Y370838D01*
Y360682D01*
X830586Y358143D01*
X835664D01*
X838203Y360682D01*
X853438Y358143D02*
X843282D01*
X853438Y368299D01*
Y370838D01*
X850899Y373377D01*
X845821D01*
X843282Y370838D01*
X861056Y368299D02*
X866134D01*
X868673Y365760D01*
Y358143D01*
X861056D01*
X858517Y360682D01*
X861056Y363221D01*
X868673D01*
X665480Y363218D02*
X662941Y365757D01*
X657862D01*
X655323Y363218D01*
Y353062D01*
X657862Y350522D01*
X662941D01*
X665480Y353062D01*
X670558Y350522D02*
X675637D01*
X673098D01*
Y365757D01*
X670558Y363218D01*
D13*
X366510Y436880D02*
G03*
X366510Y436880I-13450J0D01*
G01*
X870700Y156210D02*
G03*
X870700Y156210I-13450J0D01*
G01*
Y214630D02*
G03*
X870700Y214630I-13450J0D01*
G01*
D14*
X676760Y155210D02*
G03*
X676760Y156210I0J500D01*
G01*
D02*
G03*
X676760Y155210I0J-500D01*
G01*
D15*
X391660Y321310D02*
G03*
X391660Y321310I-39000J0D01*
G01*
X472440Y109220D02*
X497840D01*
Y58420D02*
Y109220D01*
X472440Y58420D02*
X497840D01*
X472440D02*
Y109220D01*
X189230Y60960D02*
X240030D01*
Y175260D01*
X214630D02*
X240030D01*
X214630Y162560D02*
Y175260D01*
X189230Y162560D02*
X214630D01*
X189230Y60960D02*
Y162560D01*
X275290Y420080D02*
X278290D01*
X275290Y352080D02*
X278290D01*
X275290D02*
Y420080D01*
X276190Y352080D02*
Y420080D01*
X299290Y373580D02*
Y375580D01*
Y396580D02*
Y398580D01*
Y419580D02*
Y420080D01*
Y352080D02*
Y352580D01*
X391500Y366840D02*
Y413840D01*
X497500Y366840D02*
Y413840D01*
X391500Y366840D02*
X497500D01*
X391500Y413840D02*
X497500D01*
X391500Y408840D02*
X497500D01*
X889000Y469900D02*
Y495300D01*
X787400Y469900D02*
X889000D01*
X787400Y495300D02*
X889000D01*
X787400Y469900D02*
Y495300D01*
X826770Y261860D02*
Y279160D01*
X721360Y203200D02*
Y254000D01*
X695960D02*
X721360D01*
X695960Y203200D02*
Y254000D01*
Y203200D02*
X721360D01*
X822960Y331470D02*
X873760D01*
Y356870D01*
X822960D02*
X873760D01*
X822960Y331470D02*
Y356870D01*
Y285750D02*
Y311150D01*
X873760D01*
Y285750D02*
Y311150D01*
X822960Y285750D02*
X873760D01*
X793010Y89310D02*
Y96810D01*
X700510Y89310D02*
X793010D01*
X700510D02*
Y96810D01*
X793010Y164810D02*
Y172310D01*
X700510D02*
X793010D01*
X700510Y164810D02*
Y172310D01*
X504190Y147320D02*
X524510D01*
X504190D02*
Y208280D01*
X524510D01*
Y147320D02*
Y208280D01*
X514350Y137160D02*
Y147320D01*
Y208280D02*
Y218440D01*
X194310Y412750D02*
X214630D01*
Y351790D02*
Y412750D01*
X194310Y351790D02*
X214630D01*
X194310D02*
Y412750D01*
X204470D02*
Y422910D01*
Y341630D02*
Y351790D01*
X12700Y266700D02*
X38100D01*
X12700D02*
Y368300D01*
X38100Y266700D02*
Y368300D01*
X12700D02*
X38100D01*
X589280Y111760D02*
X614680D01*
Y60960D02*
Y111760D01*
X589280Y60960D02*
X614680D01*
X589280D02*
Y111760D01*
X538480Y60960D02*
Y111760D01*
Y60960D02*
X563880D01*
Y111760D01*
X538480D02*
X563880D01*
X537210Y140970D02*
Y191770D01*
Y140970D02*
X562610D01*
Y191770D01*
X537210D02*
X562610D01*
M02*
