G04*
G04 #@! TF.GenerationSoftware,Altium Limited,Altium Designer,22.7.1 (60)*
G04*
G04 Layer_Color=16711935*
%FSLAX44Y44*%
%MOMM*%
G71*
G04*
G04 #@! TF.SameCoordinates,9849E2FD-7F07-45F3-A7E4-9B4BFC9397C6*
G04*
G04*
G04 #@! TF.FilePolarity,Positive*
G04*
G01*
G75*
%ADD15C,0.2000*%
G36*
X336448Y457880D02*
X331446D01*
X331456Y457871D01*
X331493Y457825D01*
X331548Y457769D01*
X331613Y457677D01*
X331696Y457575D01*
X331788Y457446D01*
X331890Y457298D01*
X331992Y457131D01*
Y457122D01*
X332001Y457113D01*
X332038Y457057D01*
X332084Y456965D01*
X332140Y456854D01*
X332205Y456724D01*
X332269Y456586D01*
X332334Y456447D01*
X332389Y456308D01*
X331631D01*
Y456318D01*
X331613Y456336D01*
X331604Y456373D01*
X331576Y456419D01*
X331548Y456475D01*
X331511Y456539D01*
X331419Y456697D01*
X331317Y456882D01*
X331188Y457066D01*
X331040Y457261D01*
X330882Y457455D01*
X330873Y457464D01*
X330864Y457473D01*
X330836Y457501D01*
X330808Y457538D01*
X330716Y457621D01*
X330605Y457732D01*
X330476Y457843D01*
X330328Y457963D01*
X330180Y458065D01*
X330023Y458158D01*
Y458666D01*
X336448D01*
Y457880D01*
D02*
G37*
G36*
Y455236D02*
X336457Y455199D01*
X336467Y455134D01*
X336476Y455051D01*
X336494Y454958D01*
X336504Y454857D01*
X336513Y454653D01*
Y454579D01*
X336504Y454506D01*
X336494Y454413D01*
X336485Y454302D01*
X336457Y454191D01*
X336430Y454089D01*
X336384Y453988D01*
X336374Y453979D01*
X336356Y453951D01*
X336328Y453914D01*
X336282Y453858D01*
X336236Y453812D01*
X336171Y453757D01*
X336106Y453701D01*
X336023Y453664D01*
X336014D01*
X335977Y453646D01*
X335912Y453636D01*
X335820Y453618D01*
X335699Y453599D01*
X335625Y453590D01*
X335542D01*
X335440Y453581D01*
X335339Y453572D01*
X335228D01*
X335098D01*
X332417D01*
Y452989D01*
X331807D01*
Y453572D01*
X330661D01*
X330189Y454357D01*
X331807D01*
Y455153D01*
X332417D01*
Y454357D01*
X335145D01*
X335163D01*
X335200D01*
X335256D01*
X335320Y454367D01*
X335468Y454376D01*
X335533Y454385D01*
X335579Y454394D01*
X335598Y454404D01*
X335635Y454431D01*
X335681Y454468D01*
X335727Y454533D01*
X335736Y454552D01*
X335755Y454598D01*
X335773Y454681D01*
X335783Y454801D01*
Y454894D01*
X335773Y454940D01*
Y455005D01*
X335764Y455079D01*
X335755Y455153D01*
X336448Y455254D01*
Y455236D01*
D02*
G37*
G36*
X335228Y452499D02*
X335330Y452481D01*
X335440Y452453D01*
X335561Y452407D01*
X335699Y452351D01*
X335829Y452277D01*
X335847Y452268D01*
X335884Y452231D01*
X335949Y452185D01*
X336023Y452111D01*
X336106Y452009D01*
X336199Y451898D01*
X336282Y451769D01*
X336365Y451612D01*
Y451602D01*
X336374Y451593D01*
X336393Y451538D01*
X336421Y451445D01*
X336457Y451325D01*
X336494Y451177D01*
X336522Y451011D01*
X336541Y450835D01*
X336550Y450632D01*
Y450548D01*
X336541Y450484D01*
Y450410D01*
X336531Y450317D01*
X336522Y450225D01*
X336504Y450123D01*
X336457Y449901D01*
X336393Y449670D01*
X336300Y449448D01*
X336245Y449346D01*
X336180Y449254D01*
X336171Y449245D01*
X336162Y449235D01*
X336106Y449180D01*
X336023Y449097D01*
X335894Y449004D01*
X335736Y448903D01*
X335551Y448801D01*
X335320Y448718D01*
X335061Y448653D01*
X334941Y449430D01*
X334950D01*
X334960D01*
X335015Y449448D01*
X335108Y449467D01*
X335209Y449504D01*
X335320Y449550D01*
X335440Y449605D01*
X335561Y449688D01*
X335662Y449790D01*
X335672Y449809D01*
X335699Y449846D01*
X335736Y449920D01*
X335783Y450012D01*
X335829Y450132D01*
X335866Y450271D01*
X335894Y450437D01*
X335903Y450632D01*
Y450724D01*
X335894Y450816D01*
X335875Y450937D01*
X335847Y451066D01*
X335810Y451205D01*
X335764Y451325D01*
X335690Y451436D01*
X335681Y451445D01*
X335653Y451482D01*
X335607Y451519D01*
X335542Y451575D01*
X335468Y451621D01*
X335376Y451667D01*
X335283Y451695D01*
X335172Y451704D01*
X335163D01*
X335126D01*
X335080Y451695D01*
X335015Y451676D01*
X334950Y451649D01*
X334886Y451602D01*
X334812Y451547D01*
X334756Y451464D01*
X334747Y451454D01*
X334738Y451427D01*
X334710Y451381D01*
X334682Y451306D01*
X334645Y451195D01*
X334618Y451131D01*
X334599Y451057D01*
X334571Y450974D01*
X334544Y450881D01*
X334516Y450779D01*
X334488Y450659D01*
Y450650D01*
X334479Y450622D01*
X334470Y450576D01*
X334451Y450521D01*
X334433Y450447D01*
X334405Y450363D01*
X334359Y450188D01*
X334294Y449984D01*
X334239Y449790D01*
X334174Y449605D01*
X334137Y449522D01*
X334109Y449457D01*
X334100Y449439D01*
X334081Y449402D01*
X334044Y449346D01*
X333998Y449272D01*
X333933Y449189D01*
X333859Y449106D01*
X333776Y449023D01*
X333675Y448949D01*
X333665Y448940D01*
X333628Y448921D01*
X333564Y448893D01*
X333490Y448866D01*
X333397Y448838D01*
X333286Y448810D01*
X333175Y448792D01*
X333046Y448782D01*
X333027D01*
X332990D01*
X332935Y448792D01*
X332852Y448801D01*
X332769Y448819D01*
X332667Y448838D01*
X332574Y448875D01*
X332473Y448921D01*
X332463Y448930D01*
X332426Y448949D01*
X332380Y448977D01*
X332315Y449023D01*
X332251Y449078D01*
X332168Y449143D01*
X332094Y449217D01*
X332029Y449309D01*
X332020Y449319D01*
X332010Y449346D01*
X331983Y449383D01*
X331955Y449439D01*
X331918Y449513D01*
X331881Y449596D01*
X331844Y449698D01*
X331807Y449809D01*
X331798Y449827D01*
X331788Y449864D01*
X331770Y449929D01*
X331752Y450012D01*
X331733Y450114D01*
X331724Y450225D01*
X331705Y450354D01*
Y450576D01*
X331715Y450678D01*
X331724Y450816D01*
X331742Y450964D01*
X331779Y451122D01*
X331816Y451288D01*
X331872Y451445D01*
Y451454D01*
X331881Y451464D01*
X331899Y451510D01*
X331936Y451584D01*
X331983Y451676D01*
X332047Y451778D01*
X332121Y451880D01*
X332205Y451972D01*
X332297Y452055D01*
X332306Y452065D01*
X332343Y452083D01*
X332408Y452120D01*
X332482Y452166D01*
X332593Y452213D01*
X332713Y452259D01*
X332852Y452296D01*
X333009Y452333D01*
X333111Y451565D01*
X333092D01*
X333055Y451556D01*
X332990Y451538D01*
X332907Y451510D01*
X332824Y451464D01*
X332732Y451408D01*
X332639Y451343D01*
X332556Y451251D01*
X332547Y451242D01*
X332528Y451205D01*
X332491Y451149D01*
X332454Y451066D01*
X332417Y450974D01*
X332380Y450854D01*
X332362Y450705D01*
X332352Y450548D01*
Y450456D01*
X332362Y450363D01*
X332371Y450243D01*
X332399Y450123D01*
X332426Y449994D01*
X332473Y449873D01*
X332537Y449772D01*
X332547Y449762D01*
X332565Y449735D01*
X332602Y449698D01*
X332658Y449661D01*
X332713Y449614D01*
X332787Y449578D01*
X332870Y449550D01*
X332953Y449541D01*
X332963D01*
X332981D01*
X333009Y449550D01*
X333046D01*
X333138Y449578D01*
X333231Y449633D01*
X333240Y449642D01*
X333249Y449651D01*
X333277Y449670D01*
X333305Y449707D01*
X333332Y449744D01*
X333369Y449799D01*
X333397Y449864D01*
X333434Y449938D01*
Y449947D01*
X333443Y449966D01*
X333453Y450003D01*
X333480Y450068D01*
X333508Y450160D01*
X333536Y450280D01*
X333564Y450354D01*
X333582Y450437D01*
X333610Y450530D01*
X333638Y450632D01*
Y450641D01*
X333647Y450668D01*
X333656Y450715D01*
X333675Y450770D01*
X333693Y450835D01*
X333712Y450918D01*
X333767Y451094D01*
X333823Y451288D01*
X333887Y451482D01*
X333952Y451658D01*
X333980Y451732D01*
X334007Y451796D01*
X334017Y451815D01*
X334035Y451852D01*
X334063Y451908D01*
X334109Y451991D01*
X334165Y452074D01*
X334239Y452157D01*
X334322Y452240D01*
X334414Y452314D01*
X334423Y452323D01*
X334460Y452342D01*
X334516Y452379D01*
X334599Y452416D01*
X334701Y452444D01*
X334812Y452481D01*
X334941Y452499D01*
X335089Y452508D01*
X335108D01*
X335154D01*
X335228Y452499D01*
D02*
G37*
G36*
X334331Y447997D02*
Y444529D01*
X334340D01*
X334368D01*
X334405Y444539D01*
X334460D01*
X334525Y444548D01*
X334599Y444566D01*
X334766Y444594D01*
X334950Y444650D01*
X335154Y444724D01*
X335339Y444825D01*
X335505Y444955D01*
Y444964D01*
X335524Y444973D01*
X335570Y445029D01*
X335635Y445112D01*
X335699Y445223D01*
X335773Y445371D01*
X335838Y445537D01*
X335884Y445722D01*
X335894Y445824D01*
X335903Y445935D01*
Y446009D01*
X335894Y446092D01*
X335875Y446194D01*
X335847Y446305D01*
X335810Y446434D01*
X335755Y446554D01*
X335681Y446674D01*
X335672Y446684D01*
X335635Y446730D01*
X335579Y446785D01*
X335505Y446850D01*
X335404Y446924D01*
X335274Y447007D01*
X335126Y447090D01*
X334950Y447164D01*
X335052Y447978D01*
X335061D01*
X335080Y447969D01*
X335117Y447960D01*
X335172Y447941D01*
X335228Y447913D01*
X335302Y447886D01*
X335459Y447812D01*
X335635Y447719D01*
X335820Y447590D01*
X335995Y447442D01*
X336162Y447257D01*
Y447248D01*
X336180Y447229D01*
X336199Y447201D01*
X336226Y447164D01*
X336254Y447109D01*
X336282Y447053D01*
X336319Y446979D01*
X336356Y446896D01*
X336393Y446804D01*
X336430Y446711D01*
X336485Y446480D01*
X336531Y446221D01*
X336550Y445935D01*
Y445833D01*
X336541Y445768D01*
X336531Y445685D01*
X336513Y445583D01*
X336494Y445472D01*
X336476Y445352D01*
X336402Y445093D01*
X336347Y444955D01*
X336291Y444825D01*
X336217Y444687D01*
X336134Y444557D01*
X336041Y444437D01*
X335930Y444317D01*
X335921Y444308D01*
X335903Y444289D01*
X335866Y444261D01*
X335810Y444224D01*
X335746Y444178D01*
X335672Y444132D01*
X335579Y444076D01*
X335477Y444021D01*
X335357Y443965D01*
X335228Y443910D01*
X335080Y443864D01*
X334923Y443818D01*
X334756Y443781D01*
X334571Y443753D01*
X334377Y443734D01*
X334174Y443725D01*
X334165D01*
X334118D01*
X334063D01*
X333980Y443734D01*
X333878Y443744D01*
X333767Y443753D01*
X333638Y443771D01*
X333508Y443799D01*
X333212Y443873D01*
X333064Y443919D01*
X332907Y443975D01*
X332759Y444049D01*
X332621Y444132D01*
X332482Y444224D01*
X332352Y444326D01*
X332343Y444335D01*
X332325Y444354D01*
X332297Y444391D01*
X332251Y444437D01*
X332205Y444492D01*
X332149Y444566D01*
X332084Y444650D01*
X332029Y444751D01*
X331964Y444853D01*
X331909Y444973D01*
X331853Y445103D01*
X331807Y445241D01*
X331761Y445389D01*
X331733Y445546D01*
X331715Y445713D01*
X331705Y445889D01*
Y445981D01*
X331715Y446046D01*
X331724Y446120D01*
X331742Y446212D01*
X331761Y446314D01*
X331788Y446434D01*
X331816Y446545D01*
X331862Y446674D01*
X331909Y446795D01*
X331973Y446924D01*
X332047Y447053D01*
X332131Y447183D01*
X332232Y447303D01*
X332343Y447414D01*
X332352Y447423D01*
X332371Y447442D01*
X332408Y447470D01*
X332463Y447506D01*
X332528Y447553D01*
X332602Y447599D01*
X332695Y447654D01*
X332805Y447710D01*
X332926Y447765D01*
X333055Y447821D01*
X333203Y447867D01*
X333360Y447913D01*
X333536Y447950D01*
X333721Y447978D01*
X333915Y447997D01*
X334128Y448006D01*
X334137D01*
X334174D01*
X334239D01*
X334331Y447997D01*
D02*
G37*
G36*
X330808Y441109D02*
X336448D01*
Y440258D01*
X330808D01*
Y438150D01*
X330050D01*
Y443217D01*
X330808D01*
Y441109D01*
D02*
G37*
G36*
X803920Y264725D02*
X803069D01*
Y270364D01*
X799917D01*
Y271122D01*
X803920D01*
Y264725D01*
D02*
G37*
G36*
X799343Y271113D02*
Y271076D01*
Y271021D01*
X799334Y270947D01*
X799325Y270864D01*
X799306Y270771D01*
X799288Y270679D01*
X799251Y270577D01*
Y270568D01*
X799242Y270558D01*
X799223Y270503D01*
X799186Y270420D01*
X799131Y270309D01*
X799057Y270179D01*
X798964Y270032D01*
X798863Y269883D01*
X798733Y269726D01*
Y269717D01*
X798715Y269708D01*
X798669Y269652D01*
X798585Y269569D01*
X798465Y269449D01*
X798326Y269310D01*
X798151Y269144D01*
X797938Y268959D01*
X797707Y268765D01*
X797698Y268756D01*
X797661Y268728D01*
X797605Y268682D01*
X797541Y268626D01*
X797457Y268552D01*
X797356Y268469D01*
X797254Y268377D01*
X797134Y268275D01*
X796903Y268053D01*
X796672Y267831D01*
X796561Y267720D01*
X796459Y267609D01*
X796366Y267507D01*
X796292Y267406D01*
Y267397D01*
X796274Y267387D01*
X796255Y267360D01*
X796237Y267323D01*
X796172Y267221D01*
X796098Y267101D01*
X796033Y266953D01*
X795969Y266796D01*
X795932Y266620D01*
X795913Y266453D01*
Y266444D01*
Y266435D01*
X795923Y266380D01*
X795932Y266287D01*
X795959Y266185D01*
X795996Y266056D01*
X796061Y265926D01*
X796144Y265797D01*
X796255Y265667D01*
X796274Y265649D01*
X796320Y265612D01*
X796385Y265566D01*
X796487Y265501D01*
X796616Y265446D01*
X796764Y265390D01*
X796940Y265353D01*
X797134Y265344D01*
X797189D01*
X797226Y265353D01*
X797337Y265362D01*
X797467Y265390D01*
X797605Y265427D01*
X797762Y265492D01*
X797910Y265575D01*
X798049Y265686D01*
X798067Y265704D01*
X798104Y265751D01*
X798160Y265825D01*
X798215Y265936D01*
X798280Y266065D01*
X798336Y266231D01*
X798373Y266416D01*
X798391Y266629D01*
X799195Y266546D01*
Y266537D01*
X799186Y266509D01*
Y266463D01*
X799177Y266398D01*
X799158Y266324D01*
X799140Y266241D01*
X799112Y266139D01*
X799085Y266037D01*
X799011Y265816D01*
X798900Y265594D01*
X798835Y265483D01*
X798752Y265372D01*
X798669Y265270D01*
X798576Y265177D01*
X798567Y265168D01*
X798548Y265159D01*
X798521Y265131D01*
X798474Y265104D01*
X798419Y265067D01*
X798354Y265030D01*
X798280Y264983D01*
X798188Y264937D01*
X798086Y264891D01*
X797975Y264845D01*
X797855Y264808D01*
X797726Y264771D01*
X797587Y264743D01*
X797439Y264715D01*
X797282Y264706D01*
X797115Y264697D01*
X797023D01*
X796958Y264706D01*
X796884Y264715D01*
X796792Y264725D01*
X796690Y264743D01*
X796588Y264762D01*
X796348Y264826D01*
X796107Y264919D01*
X795987Y264974D01*
X795867Y265039D01*
X795756Y265122D01*
X795654Y265215D01*
X795645Y265224D01*
X795627Y265233D01*
X795608Y265270D01*
X795571Y265307D01*
X795525Y265353D01*
X795479Y265418D01*
X795433Y265483D01*
X795377Y265566D01*
X795285Y265742D01*
X795192Y265963D01*
X795155Y266074D01*
X795137Y266204D01*
X795118Y266333D01*
X795109Y266472D01*
Y266490D01*
Y266537D01*
X795118Y266611D01*
X795127Y266712D01*
X795146Y266823D01*
X795183Y266953D01*
X795220Y267091D01*
X795275Y267230D01*
X795285Y267248D01*
X795303Y267295D01*
X795340Y267369D01*
X795396Y267470D01*
X795470Y267581D01*
X795562Y267720D01*
X795673Y267859D01*
X795802Y268016D01*
X795821Y268034D01*
X795867Y268090D01*
X795913Y268136D01*
X795959Y268182D01*
X796015Y268238D01*
X796089Y268312D01*
X796163Y268386D01*
X796255Y268469D01*
X796348Y268561D01*
X796459Y268663D01*
X796579Y268765D01*
X796708Y268885D01*
X796856Y269005D01*
X797004Y269135D01*
X797013Y269144D01*
X797032Y269162D01*
X797069Y269190D01*
X797115Y269227D01*
X797171Y269283D01*
X797235Y269338D01*
X797383Y269458D01*
X797541Y269597D01*
X797689Y269736D01*
X797818Y269856D01*
X797873Y269902D01*
X797920Y269948D01*
X797929Y269958D01*
X797957Y269985D01*
X797994Y270022D01*
X798040Y270078D01*
X798086Y270142D01*
X798141Y270207D01*
X798252Y270364D01*
X795100D01*
Y271122D01*
X799343D01*
Y271113D01*
D02*
G37*
G36*
X855392Y177955D02*
X855466Y177946D01*
X855549Y177928D01*
X855641Y177909D01*
X855743Y177891D01*
X855965Y177817D01*
X856085Y177761D01*
X856196Y177706D01*
X856316Y177632D01*
X856436Y177549D01*
X856557Y177456D01*
X856668Y177345D01*
X856677Y177336D01*
X856695Y177318D01*
X856723Y177281D01*
X856760Y177234D01*
X856806Y177179D01*
X856852Y177105D01*
X856908Y177022D01*
X856954Y176920D01*
X857010Y176818D01*
X857065Y176698D01*
X857111Y176578D01*
X857158Y176439D01*
X857195Y176291D01*
X857222Y176134D01*
X857241Y175977D01*
X857250Y175801D01*
Y175718D01*
X857241Y175663D01*
X857232Y175589D01*
X857222Y175505D01*
X857204Y175413D01*
X857185Y175311D01*
X857130Y175089D01*
X857037Y174858D01*
X856982Y174738D01*
X856917Y174627D01*
X856834Y174516D01*
X856751Y174405D01*
X856742Y174396D01*
X856723Y174377D01*
X856695Y174350D01*
X856658Y174322D01*
X856612Y174276D01*
X856547Y174230D01*
X856483Y174174D01*
X856400Y174119D01*
X856307Y174063D01*
X856215Y174008D01*
X855993Y173906D01*
X855734Y173823D01*
X855595Y173795D01*
X855447Y173776D01*
X855346Y174562D01*
X855355D01*
X855373Y174572D01*
X855410Y174581D01*
X855456Y174590D01*
X855512Y174599D01*
X855577Y174618D01*
X855715Y174664D01*
X855882Y174729D01*
X856039Y174812D01*
X856187Y174904D01*
X856316Y175015D01*
X856326Y175034D01*
X856363Y175071D01*
X856409Y175145D01*
X856455Y175237D01*
X856510Y175348D01*
X856557Y175487D01*
X856594Y175644D01*
X856603Y175811D01*
Y175866D01*
X856594Y175903D01*
X856584Y176005D01*
X856557Y176134D01*
X856510Y176282D01*
X856446Y176439D01*
X856353Y176596D01*
X856224Y176744D01*
X856205Y176763D01*
X856150Y176809D01*
X856067Y176864D01*
X855956Y176938D01*
X855817Y177013D01*
X855660Y177068D01*
X855475Y177114D01*
X855272Y177133D01*
X855262D01*
X855244D01*
X855216D01*
X855179Y177123D01*
X855077Y177114D01*
X854957Y177086D01*
X854809Y177050D01*
X854661Y176985D01*
X854513Y176892D01*
X854375Y176772D01*
X854356Y176754D01*
X854319Y176707D01*
X854264Y176633D01*
X854199Y176532D01*
X854134Y176402D01*
X854079Y176245D01*
X854042Y176069D01*
X854023Y175875D01*
Y175792D01*
X854033Y175727D01*
X854042Y175644D01*
X854060Y175552D01*
X854079Y175441D01*
X854107Y175320D01*
X853413Y175413D01*
Y175459D01*
X853422Y175496D01*
Y175616D01*
X853404Y175718D01*
X853385Y175838D01*
X853358Y175977D01*
X853311Y176134D01*
X853247Y176282D01*
X853164Y176439D01*
Y176448D01*
X853154Y176458D01*
X853117Y176504D01*
X853053Y176569D01*
X852969Y176643D01*
X852849Y176717D01*
X852710Y176781D01*
X852553Y176828D01*
X852461Y176846D01*
X852359D01*
X852350D01*
X852341D01*
X852285D01*
X852211Y176828D01*
X852110Y176809D01*
X851999Y176772D01*
X851878Y176726D01*
X851758Y176652D01*
X851647Y176550D01*
X851638Y176541D01*
X851601Y176495D01*
X851555Y176430D01*
X851499Y176347D01*
X851453Y176236D01*
X851407Y176106D01*
X851370Y175958D01*
X851361Y175792D01*
Y175718D01*
X851379Y175635D01*
X851398Y175524D01*
X851435Y175404D01*
X851481Y175284D01*
X851555Y175154D01*
X851647Y175034D01*
X851656Y175025D01*
X851703Y174988D01*
X851767Y174932D01*
X851860Y174867D01*
X851980Y174803D01*
X852128Y174738D01*
X852304Y174683D01*
X852507Y174646D01*
X852368Y173860D01*
X852359D01*
X852331Y173869D01*
X852294Y173878D01*
X852239Y173888D01*
X852174Y173906D01*
X852100Y173934D01*
X851925Y173989D01*
X851721Y174082D01*
X851518Y174193D01*
X851324Y174331D01*
X851148Y174507D01*
X851139Y174516D01*
X851130Y174535D01*
X851111Y174562D01*
X851083Y174599D01*
X851046Y174646D01*
X851009Y174710D01*
X850972Y174775D01*
X850926Y174858D01*
X850852Y175043D01*
X850778Y175256D01*
X850732Y175505D01*
X850713Y175635D01*
Y175866D01*
X850723Y175968D01*
X850741Y176088D01*
X850769Y176236D01*
X850815Y176402D01*
X850871Y176569D01*
X850945Y176735D01*
Y176744D01*
X850954Y176754D01*
X850982Y176809D01*
X851037Y176892D01*
X851102Y176985D01*
X851194Y177096D01*
X851296Y177207D01*
X851416Y177318D01*
X851555Y177410D01*
X851573Y177419D01*
X851619Y177447D01*
X851703Y177484D01*
X851804Y177530D01*
X851925Y177577D01*
X852063Y177613D01*
X852221Y177641D01*
X852378Y177650D01*
X852396D01*
X852452D01*
X852526Y177641D01*
X852627Y177623D01*
X852747Y177595D01*
X852877Y177549D01*
X853006Y177493D01*
X853136Y177419D01*
X853154Y177410D01*
X853191Y177382D01*
X853256Y177327D01*
X853330Y177253D01*
X853413Y177160D01*
X853506Y177050D01*
X853589Y176920D01*
X853672Y176763D01*
Y176772D01*
X853681Y176791D01*
X853690Y176818D01*
X853700Y176855D01*
X853737Y176957D01*
X853792Y177086D01*
X853866Y177234D01*
X853959Y177382D01*
X854079Y177521D01*
X854218Y177650D01*
X854236Y177660D01*
X854292Y177697D01*
X854384Y177752D01*
X854504Y177808D01*
X854652Y177863D01*
X854828Y177918D01*
X855031Y177955D01*
X855253Y177965D01*
X855262D01*
X855290D01*
X855336D01*
X855392Y177955D01*
D02*
G37*
G36*
X857139Y173296D02*
X857148Y173259D01*
X857158Y173194D01*
X857167Y173111D01*
X857185Y173018D01*
X857195Y172917D01*
X857204Y172713D01*
Y172639D01*
X857195Y172565D01*
X857185Y172473D01*
X857176Y172362D01*
X857148Y172251D01*
X857121Y172149D01*
X857074Y172048D01*
X857065Y172038D01*
X857047Y172011D01*
X857019Y171974D01*
X856973Y171918D01*
X856926Y171872D01*
X856862Y171816D01*
X856797Y171761D01*
X856714Y171724D01*
X856705D01*
X856668Y171705D01*
X856603Y171696D01*
X856510Y171678D01*
X856390Y171659D01*
X856316Y171650D01*
X856233D01*
X856131Y171641D01*
X856030Y171632D01*
X855919D01*
X855789D01*
X853108D01*
Y171049D01*
X852498D01*
Y171632D01*
X851351D01*
X850880Y172417D01*
X852498D01*
Y173213D01*
X853108D01*
Y172417D01*
X855835D01*
X855854D01*
X855891D01*
X855946D01*
X856011Y172427D01*
X856159Y172436D01*
X856224Y172445D01*
X856270Y172454D01*
X856289Y172464D01*
X856326Y172491D01*
X856372Y172528D01*
X856418Y172593D01*
X856427Y172612D01*
X856446Y172658D01*
X856464Y172741D01*
X856473Y172861D01*
Y172954D01*
X856464Y173000D01*
Y173065D01*
X856455Y173139D01*
X856446Y173213D01*
X857139Y173314D01*
Y173296D01*
D02*
G37*
G36*
X855919Y170559D02*
X856020Y170541D01*
X856131Y170513D01*
X856252Y170467D01*
X856390Y170411D01*
X856520Y170337D01*
X856538Y170328D01*
X856575Y170291D01*
X856640Y170245D01*
X856714Y170171D01*
X856797Y170069D01*
X856889Y169958D01*
X856973Y169829D01*
X857056Y169671D01*
Y169662D01*
X857065Y169653D01*
X857084Y169597D01*
X857111Y169505D01*
X857148Y169385D01*
X857185Y169237D01*
X857213Y169070D01*
X857232Y168895D01*
X857241Y168691D01*
Y168608D01*
X857232Y168543D01*
Y168470D01*
X857222Y168377D01*
X857213Y168285D01*
X857195Y168183D01*
X857148Y167961D01*
X857084Y167730D01*
X856991Y167508D01*
X856936Y167406D01*
X856871Y167314D01*
X856862Y167305D01*
X856852Y167295D01*
X856797Y167240D01*
X856714Y167157D01*
X856584Y167064D01*
X856427Y166963D01*
X856242Y166861D01*
X856011Y166778D01*
X855752Y166713D01*
X855632Y167489D01*
X855641D01*
X855651D01*
X855706Y167508D01*
X855798Y167526D01*
X855900Y167563D01*
X856011Y167610D01*
X856131Y167665D01*
X856252Y167748D01*
X856353Y167850D01*
X856363Y167869D01*
X856390Y167906D01*
X856427Y167980D01*
X856473Y168072D01*
X856520Y168192D01*
X856557Y168331D01*
X856584Y168497D01*
X856594Y168691D01*
Y168784D01*
X856584Y168876D01*
X856566Y168997D01*
X856538Y169126D01*
X856501Y169265D01*
X856455Y169385D01*
X856381Y169496D01*
X856372Y169505D01*
X856344Y169542D01*
X856298Y169579D01*
X856233Y169634D01*
X856159Y169681D01*
X856067Y169727D01*
X855974Y169755D01*
X855863Y169764D01*
X855854D01*
X855817D01*
X855771Y169755D01*
X855706Y169736D01*
X855641Y169708D01*
X855577Y169662D01*
X855503Y169607D01*
X855447Y169524D01*
X855438Y169514D01*
X855429Y169487D01*
X855401Y169440D01*
X855373Y169366D01*
X855336Y169255D01*
X855309Y169191D01*
X855290Y169117D01*
X855262Y169034D01*
X855235Y168941D01*
X855207Y168839D01*
X855179Y168719D01*
Y168710D01*
X855170Y168682D01*
X855161Y168636D01*
X855142Y168580D01*
X855124Y168507D01*
X855096Y168423D01*
X855050Y168248D01*
X854985Y168044D01*
X854929Y167850D01*
X854865Y167665D01*
X854828Y167582D01*
X854800Y167517D01*
X854791Y167499D01*
X854772Y167462D01*
X854735Y167406D01*
X854689Y167332D01*
X854624Y167249D01*
X854550Y167166D01*
X854467Y167083D01*
X854365Y167009D01*
X854356Y166999D01*
X854319Y166981D01*
X854255Y166953D01*
X854181Y166926D01*
X854088Y166898D01*
X853977Y166870D01*
X853866Y166852D01*
X853737Y166842D01*
X853718D01*
X853681D01*
X853626Y166852D01*
X853543Y166861D01*
X853459Y166879D01*
X853358Y166898D01*
X853265Y166935D01*
X853164Y166981D01*
X853154Y166990D01*
X853117Y167009D01*
X853071Y167036D01*
X853006Y167083D01*
X852942Y167138D01*
X852858Y167203D01*
X852785Y167277D01*
X852720Y167369D01*
X852710Y167379D01*
X852701Y167406D01*
X852673Y167443D01*
X852646Y167499D01*
X852609Y167573D01*
X852572Y167656D01*
X852535Y167758D01*
X852498Y167869D01*
X852489Y167887D01*
X852479Y167924D01*
X852461Y167989D01*
X852442Y168072D01*
X852424Y168174D01*
X852415Y168285D01*
X852396Y168414D01*
Y168636D01*
X852405Y168738D01*
X852415Y168876D01*
X852433Y169024D01*
X852470Y169181D01*
X852507Y169348D01*
X852563Y169505D01*
Y169514D01*
X852572Y169524D01*
X852590Y169570D01*
X852627Y169644D01*
X852673Y169736D01*
X852738Y169838D01*
X852812Y169940D01*
X852895Y170032D01*
X852988Y170115D01*
X852997Y170124D01*
X853034Y170143D01*
X853099Y170180D01*
X853173Y170226D01*
X853284Y170272D01*
X853404Y170319D01*
X853543Y170356D01*
X853700Y170393D01*
X853801Y169625D01*
X853783D01*
X853746Y169616D01*
X853681Y169597D01*
X853598Y169570D01*
X853515Y169524D01*
X853422Y169468D01*
X853330Y169403D01*
X853247Y169311D01*
X853238Y169302D01*
X853219Y169265D01*
X853182Y169209D01*
X853145Y169126D01*
X853108Y169034D01*
X853071Y168913D01*
X853053Y168765D01*
X853043Y168608D01*
Y168516D01*
X853053Y168423D01*
X853062Y168303D01*
X853090Y168183D01*
X853117Y168053D01*
X853164Y167933D01*
X853228Y167832D01*
X853238Y167822D01*
X853256Y167795D01*
X853293Y167758D01*
X853348Y167721D01*
X853404Y167674D01*
X853478Y167637D01*
X853561Y167610D01*
X853644Y167600D01*
X853653D01*
X853672D01*
X853700Y167610D01*
X853737D01*
X853829Y167637D01*
X853922Y167693D01*
X853931Y167702D01*
X853940Y167711D01*
X853968Y167730D01*
X853996Y167767D01*
X854023Y167804D01*
X854060Y167859D01*
X854088Y167924D01*
X854125Y167998D01*
Y168007D01*
X854134Y168026D01*
X854144Y168063D01*
X854171Y168127D01*
X854199Y168220D01*
X854227Y168340D01*
X854255Y168414D01*
X854273Y168497D01*
X854301Y168590D01*
X854329Y168691D01*
Y168701D01*
X854338Y168728D01*
X854347Y168775D01*
X854365Y168830D01*
X854384Y168895D01*
X854402Y168978D01*
X854458Y169154D01*
X854513Y169348D01*
X854578Y169542D01*
X854643Y169718D01*
X854671Y169792D01*
X854698Y169856D01*
X854707Y169875D01*
X854726Y169912D01*
X854754Y169967D01*
X854800Y170051D01*
X854855Y170134D01*
X854929Y170217D01*
X855013Y170300D01*
X855105Y170374D01*
X855114Y170383D01*
X855151Y170402D01*
X855207Y170439D01*
X855290Y170476D01*
X855392Y170504D01*
X855503Y170541D01*
X855632Y170559D01*
X855780Y170568D01*
X855798D01*
X855845D01*
X855919Y170559D01*
D02*
G37*
G36*
X855022Y166056D02*
Y162589D01*
X855031D01*
X855059D01*
X855096Y162599D01*
X855151D01*
X855216Y162608D01*
X855290Y162626D01*
X855456Y162654D01*
X855641Y162710D01*
X855845Y162784D01*
X856030Y162885D01*
X856196Y163015D01*
Y163024D01*
X856215Y163033D01*
X856261Y163089D01*
X856326Y163172D01*
X856390Y163283D01*
X856464Y163431D01*
X856529Y163597D01*
X856575Y163782D01*
X856584Y163884D01*
X856594Y163995D01*
Y164069D01*
X856584Y164152D01*
X856566Y164254D01*
X856538Y164364D01*
X856501Y164494D01*
X856446Y164614D01*
X856372Y164734D01*
X856363Y164744D01*
X856326Y164790D01*
X856270Y164845D01*
X856196Y164910D01*
X856094Y164984D01*
X855965Y165067D01*
X855817Y165150D01*
X855641Y165224D01*
X855743Y166038D01*
X855752D01*
X855771Y166029D01*
X855808Y166019D01*
X855863Y166001D01*
X855919Y165973D01*
X855993Y165945D01*
X856150Y165872D01*
X856326Y165779D01*
X856510Y165650D01*
X856686Y165502D01*
X856852Y165317D01*
Y165308D01*
X856871Y165289D01*
X856889Y165261D01*
X856917Y165224D01*
X856945Y165169D01*
X856973Y165113D01*
X857010Y165039D01*
X857047Y164956D01*
X857084Y164864D01*
X857121Y164771D01*
X857176Y164540D01*
X857222Y164281D01*
X857241Y163995D01*
Y163893D01*
X857232Y163828D01*
X857222Y163745D01*
X857204Y163643D01*
X857185Y163532D01*
X857167Y163412D01*
X857093Y163153D01*
X857037Y163015D01*
X856982Y162885D01*
X856908Y162747D01*
X856825Y162617D01*
X856732Y162497D01*
X856621Y162377D01*
X856612Y162367D01*
X856594Y162349D01*
X856557Y162321D01*
X856501Y162284D01*
X856436Y162238D01*
X856363Y162192D01*
X856270Y162136D01*
X856168Y162081D01*
X856048Y162025D01*
X855919Y161970D01*
X855771Y161924D01*
X855614Y161877D01*
X855447Y161840D01*
X855262Y161813D01*
X855068Y161794D01*
X854865Y161785D01*
X854855D01*
X854809D01*
X854754D01*
X854671Y161794D01*
X854569Y161803D01*
X854458Y161813D01*
X854329Y161831D01*
X854199Y161859D01*
X853903Y161933D01*
X853755Y161979D01*
X853598Y162035D01*
X853450Y162109D01*
X853311Y162192D01*
X853173Y162284D01*
X853043Y162386D01*
X853034Y162395D01*
X853016Y162414D01*
X852988Y162451D01*
X852942Y162497D01*
X852895Y162552D01*
X852840Y162626D01*
X852775Y162710D01*
X852720Y162811D01*
X852655Y162913D01*
X852599Y163033D01*
X852544Y163163D01*
X852498Y163301D01*
X852452Y163449D01*
X852424Y163606D01*
X852405Y163773D01*
X852396Y163948D01*
Y164041D01*
X852405Y164106D01*
X852415Y164180D01*
X852433Y164272D01*
X852452Y164374D01*
X852479Y164494D01*
X852507Y164605D01*
X852553Y164734D01*
X852599Y164855D01*
X852664Y164984D01*
X852738Y165113D01*
X852821Y165243D01*
X852923Y165363D01*
X853034Y165474D01*
X853043Y165483D01*
X853062Y165502D01*
X853099Y165529D01*
X853154Y165566D01*
X853219Y165613D01*
X853293Y165659D01*
X853385Y165714D01*
X853496Y165770D01*
X853617Y165825D01*
X853746Y165881D01*
X853894Y165927D01*
X854051Y165973D01*
X854227Y166010D01*
X854412Y166038D01*
X854606Y166056D01*
X854818Y166066D01*
X854828D01*
X854865D01*
X854929D01*
X855022Y166056D01*
D02*
G37*
G36*
X851499Y159169D02*
X857139D01*
Y158318D01*
X851499D01*
Y156210D01*
X850741D01*
Y161276D01*
X851499D01*
Y159169D01*
D02*
G37*
G36*
X857148Y232076D02*
X857139D01*
X857102D01*
X857047D01*
X856973Y232086D01*
X856889Y232095D01*
X856797Y232113D01*
X856705Y232132D01*
X856603Y232169D01*
X856594D01*
X856584Y232178D01*
X856529Y232197D01*
X856446Y232234D01*
X856335Y232289D01*
X856205Y232363D01*
X856057Y232455D01*
X855910Y232557D01*
X855752Y232687D01*
X855743D01*
X855734Y232705D01*
X855678Y232751D01*
X855595Y232834D01*
X855475Y232955D01*
X855336Y233093D01*
X855170Y233269D01*
X854985Y233482D01*
X854791Y233713D01*
X854781Y233722D01*
X854754Y233759D01*
X854707Y233815D01*
X854652Y233879D01*
X854578Y233962D01*
X854495Y234064D01*
X854402Y234166D01*
X854301Y234286D01*
X854079Y234517D01*
X853857Y234748D01*
X853746Y234859D01*
X853635Y234961D01*
X853533Y235053D01*
X853432Y235127D01*
X853422D01*
X853413Y235146D01*
X853385Y235164D01*
X853348Y235183D01*
X853247Y235248D01*
X853127Y235322D01*
X852979Y235386D01*
X852821Y235451D01*
X852646Y235488D01*
X852479Y235506D01*
X852470D01*
X852461D01*
X852405Y235497D01*
X852313Y235488D01*
X852211Y235460D01*
X852082Y235423D01*
X851952Y235359D01*
X851823Y235275D01*
X851693Y235164D01*
X851675Y235146D01*
X851638Y235100D01*
X851592Y235035D01*
X851527Y234933D01*
X851472Y234804D01*
X851416Y234656D01*
X851379Y234480D01*
X851370Y234286D01*
Y234230D01*
X851379Y234194D01*
X851388Y234083D01*
X851416Y233953D01*
X851453Y233815D01*
X851518Y233657D01*
X851601Y233509D01*
X851712Y233371D01*
X851730Y233352D01*
X851777Y233315D01*
X851851Y233260D01*
X851962Y233204D01*
X852091Y233140D01*
X852258Y233084D01*
X852442Y233047D01*
X852655Y233029D01*
X852572Y232224D01*
X852563D01*
X852535Y232234D01*
X852489D01*
X852424Y232243D01*
X852350Y232261D01*
X852267Y232280D01*
X852165Y232307D01*
X852063Y232335D01*
X851841Y232409D01*
X851619Y232520D01*
X851509Y232585D01*
X851398Y232668D01*
X851296Y232751D01*
X851204Y232844D01*
X851194Y232853D01*
X851185Y232871D01*
X851157Y232899D01*
X851130Y232945D01*
X851093Y233001D01*
X851056Y233066D01*
X851009Y233140D01*
X850963Y233232D01*
X850917Y233334D01*
X850871Y233445D01*
X850834Y233565D01*
X850797Y233694D01*
X850769Y233833D01*
X850741Y233981D01*
X850732Y234138D01*
X850723Y234305D01*
Y234397D01*
X850732Y234462D01*
X850741Y234536D01*
X850750Y234628D01*
X850769Y234730D01*
X850787Y234832D01*
X850852Y235072D01*
X850945Y235312D01*
X851000Y235432D01*
X851065Y235553D01*
X851148Y235664D01*
X851240Y235765D01*
X851250Y235775D01*
X851259Y235793D01*
X851296Y235812D01*
X851333Y235849D01*
X851379Y235895D01*
X851444Y235941D01*
X851509Y235987D01*
X851592Y236043D01*
X851767Y236135D01*
X851989Y236228D01*
X852100Y236265D01*
X852230Y236283D01*
X852359Y236302D01*
X852498Y236311D01*
X852516D01*
X852563D01*
X852636Y236302D01*
X852738Y236292D01*
X852849Y236274D01*
X852979Y236237D01*
X853117Y236200D01*
X853256Y236144D01*
X853275Y236135D01*
X853321Y236117D01*
X853395Y236080D01*
X853496Y236024D01*
X853607Y235950D01*
X853746Y235858D01*
X853885Y235747D01*
X854042Y235617D01*
X854060Y235599D01*
X854116Y235553D01*
X854162Y235506D01*
X854208Y235460D01*
X854264Y235405D01*
X854338Y235331D01*
X854412Y235257D01*
X854495Y235164D01*
X854587Y235072D01*
X854689Y234961D01*
X854791Y234841D01*
X854911Y234711D01*
X855031Y234563D01*
X855161Y234415D01*
X855170Y234406D01*
X855188Y234388D01*
X855216Y234351D01*
X855253Y234305D01*
X855309Y234249D01*
X855364Y234184D01*
X855484Y234036D01*
X855623Y233879D01*
X855761Y233731D01*
X855882Y233602D01*
X855928Y233546D01*
X855974Y233500D01*
X855983Y233491D01*
X856011Y233463D01*
X856048Y233426D01*
X856104Y233380D01*
X856168Y233334D01*
X856233Y233278D01*
X856390Y233167D01*
Y236320D01*
X857148D01*
Y232076D01*
D02*
G37*
G36*
Y231716D02*
X857158Y231679D01*
X857167Y231614D01*
X857176Y231531D01*
X857195Y231438D01*
X857204Y231337D01*
X857213Y231133D01*
Y231059D01*
X857204Y230985D01*
X857195Y230893D01*
X857185Y230782D01*
X857158Y230671D01*
X857130Y230569D01*
X857084Y230468D01*
X857074Y230458D01*
X857056Y230431D01*
X857028Y230394D01*
X856982Y230338D01*
X856936Y230292D01*
X856871Y230236D01*
X856806Y230181D01*
X856723Y230144D01*
X856714D01*
X856677Y230126D01*
X856612Y230116D01*
X856520Y230098D01*
X856400Y230079D01*
X856326Y230070D01*
X856242D01*
X856141Y230061D01*
X856039Y230051D01*
X855928D01*
X855798D01*
X853117D01*
Y229469D01*
X852507D01*
Y230051D01*
X851361D01*
X850889Y230837D01*
X852507D01*
Y231632D01*
X853117D01*
Y230837D01*
X855845D01*
X855863D01*
X855900D01*
X855956D01*
X856020Y230847D01*
X856168Y230856D01*
X856233Y230865D01*
X856279Y230874D01*
X856298Y230884D01*
X856335Y230911D01*
X856381Y230948D01*
X856427Y231013D01*
X856436Y231032D01*
X856455Y231078D01*
X856473Y231161D01*
X856483Y231281D01*
Y231374D01*
X856473Y231420D01*
Y231485D01*
X856464Y231559D01*
X856455Y231632D01*
X857148Y231734D01*
Y231716D01*
D02*
G37*
G36*
X855928Y228979D02*
X856030Y228961D01*
X856141Y228933D01*
X856261Y228887D01*
X856400Y228831D01*
X856529Y228757D01*
X856547Y228748D01*
X856584Y228711D01*
X856649Y228665D01*
X856723Y228591D01*
X856806Y228489D01*
X856899Y228378D01*
X856982Y228249D01*
X857065Y228092D01*
Y228082D01*
X857074Y228073D01*
X857093Y228018D01*
X857121Y227925D01*
X857158Y227805D01*
X857195Y227657D01*
X857222Y227491D01*
X857241Y227315D01*
X857250Y227111D01*
Y227028D01*
X857241Y226964D01*
Y226889D01*
X857232Y226797D01*
X857222Y226705D01*
X857204Y226603D01*
X857158Y226381D01*
X857093Y226150D01*
X857000Y225928D01*
X856945Y225826D01*
X856880Y225734D01*
X856871Y225725D01*
X856862Y225715D01*
X856806Y225660D01*
X856723Y225577D01*
X856594Y225484D01*
X856436Y225382D01*
X856252Y225281D01*
X856020Y225198D01*
X855761Y225133D01*
X855641Y225910D01*
X855651D01*
X855660D01*
X855715Y225928D01*
X855808Y225947D01*
X855910Y225984D01*
X856020Y226030D01*
X856141Y226085D01*
X856261Y226168D01*
X856363Y226270D01*
X856372Y226289D01*
X856400Y226326D01*
X856436Y226399D01*
X856483Y226492D01*
X856529Y226612D01*
X856566Y226751D01*
X856594Y226917D01*
X856603Y227111D01*
Y227204D01*
X856594Y227296D01*
X856575Y227416D01*
X856547Y227546D01*
X856510Y227685D01*
X856464Y227805D01*
X856390Y227916D01*
X856381Y227925D01*
X856353Y227962D01*
X856307Y227999D01*
X856242Y228055D01*
X856168Y228101D01*
X856076Y228147D01*
X855983Y228175D01*
X855872Y228184D01*
X855863D01*
X855826D01*
X855780Y228175D01*
X855715Y228156D01*
X855651Y228128D01*
X855586Y228082D01*
X855512Y228027D01*
X855456Y227943D01*
X855447Y227934D01*
X855438Y227907D01*
X855410Y227860D01*
X855383Y227786D01*
X855346Y227675D01*
X855318Y227611D01*
X855299Y227537D01*
X855272Y227453D01*
X855244Y227361D01*
X855216Y227259D01*
X855188Y227139D01*
Y227130D01*
X855179Y227102D01*
X855170Y227056D01*
X855151Y227001D01*
X855133Y226926D01*
X855105Y226843D01*
X855059Y226668D01*
X854994Y226464D01*
X854939Y226270D01*
X854874Y226085D01*
X854837Y226002D01*
X854809Y225937D01*
X854800Y225919D01*
X854781Y225882D01*
X854744Y225826D01*
X854698Y225752D01*
X854634Y225669D01*
X854560Y225586D01*
X854476Y225503D01*
X854375Y225429D01*
X854365Y225420D01*
X854329Y225401D01*
X854264Y225373D01*
X854190Y225345D01*
X854097Y225318D01*
X853986Y225290D01*
X853875Y225272D01*
X853746Y225262D01*
X853727D01*
X853690D01*
X853635Y225272D01*
X853552Y225281D01*
X853469Y225299D01*
X853367Y225318D01*
X853275Y225355D01*
X853173Y225401D01*
X853164Y225410D01*
X853127Y225429D01*
X853080Y225457D01*
X853016Y225503D01*
X852951Y225558D01*
X852868Y225623D01*
X852794Y225697D01*
X852729Y225789D01*
X852720Y225799D01*
X852710Y225826D01*
X852683Y225863D01*
X852655Y225919D01*
X852618Y225993D01*
X852581Y226076D01*
X852544Y226178D01*
X852507Y226289D01*
X852498Y226307D01*
X852489Y226344D01*
X852470Y226409D01*
X852452Y226492D01*
X852433Y226594D01*
X852424Y226705D01*
X852405Y226834D01*
Y227056D01*
X852415Y227158D01*
X852424Y227296D01*
X852442Y227444D01*
X852479Y227601D01*
X852516Y227768D01*
X852572Y227925D01*
Y227934D01*
X852581Y227943D01*
X852599Y227990D01*
X852636Y228064D01*
X852683Y228156D01*
X852747Y228258D01*
X852821Y228360D01*
X852905Y228452D01*
X852997Y228535D01*
X853006Y228545D01*
X853043Y228563D01*
X853108Y228600D01*
X853182Y228646D01*
X853293Y228692D01*
X853413Y228739D01*
X853552Y228776D01*
X853709Y228813D01*
X853811Y228045D01*
X853792D01*
X853755Y228036D01*
X853690Y228018D01*
X853607Y227990D01*
X853524Y227943D01*
X853432Y227888D01*
X853339Y227823D01*
X853256Y227731D01*
X853247Y227722D01*
X853228Y227685D01*
X853191Y227629D01*
X853154Y227546D01*
X853117Y227453D01*
X853080Y227333D01*
X853062Y227185D01*
X853053Y227028D01*
Y226936D01*
X853062Y226843D01*
X853071Y226723D01*
X853099Y226603D01*
X853127Y226474D01*
X853173Y226353D01*
X853238Y226252D01*
X853247Y226242D01*
X853265Y226215D01*
X853302Y226178D01*
X853358Y226141D01*
X853413Y226094D01*
X853487Y226057D01*
X853570Y226030D01*
X853653Y226021D01*
X853663D01*
X853681D01*
X853709Y226030D01*
X853746D01*
X853838Y226057D01*
X853931Y226113D01*
X853940Y226122D01*
X853949Y226131D01*
X853977Y226150D01*
X854005Y226187D01*
X854033Y226224D01*
X854070Y226279D01*
X854097Y226344D01*
X854134Y226418D01*
Y226427D01*
X854144Y226446D01*
X854153Y226483D01*
X854181Y226548D01*
X854208Y226640D01*
X854236Y226760D01*
X854264Y226834D01*
X854282Y226917D01*
X854310Y227010D01*
X854338Y227111D01*
Y227121D01*
X854347Y227148D01*
X854356Y227195D01*
X854375Y227250D01*
X854393Y227315D01*
X854412Y227398D01*
X854467Y227574D01*
X854523Y227768D01*
X854587Y227962D01*
X854652Y228138D01*
X854680Y228212D01*
X854707Y228276D01*
X854717Y228295D01*
X854735Y228332D01*
X854763Y228387D01*
X854809Y228470D01*
X854865Y228554D01*
X854939Y228637D01*
X855022Y228720D01*
X855114Y228794D01*
X855124Y228803D01*
X855161Y228822D01*
X855216Y228859D01*
X855299Y228896D01*
X855401Y228924D01*
X855512Y228961D01*
X855641Y228979D01*
X855789Y228988D01*
X855808D01*
X855854D01*
X855928Y228979D01*
D02*
G37*
G36*
X855031Y224476D02*
Y221009D01*
X855040D01*
X855068D01*
X855105Y221019D01*
X855161D01*
X855225Y221028D01*
X855299Y221046D01*
X855466Y221074D01*
X855651Y221129D01*
X855854Y221203D01*
X856039Y221305D01*
X856205Y221435D01*
Y221444D01*
X856224Y221453D01*
X856270Y221509D01*
X856335Y221592D01*
X856400Y221703D01*
X856473Y221851D01*
X856538Y222017D01*
X856584Y222202D01*
X856594Y222304D01*
X856603Y222415D01*
Y222489D01*
X856594Y222572D01*
X856575Y222673D01*
X856547Y222785D01*
X856510Y222914D01*
X856455Y223034D01*
X856381Y223154D01*
X856372Y223164D01*
X856335Y223210D01*
X856279Y223265D01*
X856205Y223330D01*
X856104Y223404D01*
X855974Y223487D01*
X855826Y223570D01*
X855651Y223644D01*
X855752Y224458D01*
X855761D01*
X855780Y224449D01*
X855817Y224440D01*
X855872Y224421D01*
X855928Y224393D01*
X856002Y224366D01*
X856159Y224291D01*
X856335Y224199D01*
X856520Y224070D01*
X856695Y223922D01*
X856862Y223737D01*
Y223727D01*
X856880Y223709D01*
X856899Y223681D01*
X856926Y223644D01*
X856954Y223589D01*
X856982Y223533D01*
X857019Y223459D01*
X857056Y223376D01*
X857093Y223284D01*
X857130Y223191D01*
X857185Y222960D01*
X857232Y222701D01*
X857250Y222415D01*
Y222313D01*
X857241Y222248D01*
X857232Y222165D01*
X857213Y222063D01*
X857195Y221952D01*
X857176Y221832D01*
X857102Y221573D01*
X857047Y221435D01*
X856991Y221305D01*
X856917Y221166D01*
X856834Y221037D01*
X856742Y220917D01*
X856631Y220797D01*
X856621Y220787D01*
X856603Y220769D01*
X856566Y220741D01*
X856510Y220704D01*
X856446Y220658D01*
X856372Y220612D01*
X856279Y220556D01*
X856178Y220501D01*
X856057Y220445D01*
X855928Y220390D01*
X855780Y220344D01*
X855623Y220297D01*
X855456Y220260D01*
X855272Y220233D01*
X855077Y220214D01*
X854874Y220205D01*
X854865D01*
X854818D01*
X854763D01*
X854680Y220214D01*
X854578Y220224D01*
X854467Y220233D01*
X854338Y220251D01*
X854208Y220279D01*
X853912Y220353D01*
X853764Y220399D01*
X853607Y220455D01*
X853459Y220529D01*
X853321Y220612D01*
X853182Y220704D01*
X853053Y220806D01*
X853043Y220815D01*
X853025Y220834D01*
X852997Y220871D01*
X852951Y220917D01*
X852905Y220972D01*
X852849Y221046D01*
X852785Y221129D01*
X852729Y221231D01*
X852664Y221333D01*
X852609Y221453D01*
X852553Y221583D01*
X852507Y221721D01*
X852461Y221869D01*
X852433Y222026D01*
X852415Y222193D01*
X852405Y222368D01*
Y222461D01*
X852415Y222526D01*
X852424Y222600D01*
X852442Y222692D01*
X852461Y222794D01*
X852489Y222914D01*
X852516Y223025D01*
X852563Y223154D01*
X852609Y223274D01*
X852673Y223404D01*
X852747Y223533D01*
X852831Y223663D01*
X852932Y223783D01*
X853043Y223894D01*
X853053Y223903D01*
X853071Y223922D01*
X853108Y223949D01*
X853164Y223986D01*
X853228Y224033D01*
X853302Y224079D01*
X853395Y224134D01*
X853506Y224190D01*
X853626Y224245D01*
X853755Y224301D01*
X853903Y224347D01*
X854060Y224393D01*
X854236Y224430D01*
X854421Y224458D01*
X854615Y224476D01*
X854828Y224486D01*
X854837D01*
X854874D01*
X854939D01*
X855031Y224476D01*
D02*
G37*
G36*
X851509Y217589D02*
X857148D01*
Y216738D01*
X851509D01*
Y214630D01*
X850750D01*
Y219697D01*
X851509D01*
Y217589D01*
D02*
G37*
%LPC*%
G36*
X333684Y447174D02*
X333675D01*
X333656D01*
X333628Y447164D01*
X333591D01*
X333480Y447146D01*
X333360Y447118D01*
X333212Y447072D01*
X333074Y447026D01*
X332935Y446952D01*
X332815Y446869D01*
X332805D01*
X332796Y446850D01*
X332741Y446804D01*
X332667Y446721D01*
X332584Y446610D01*
X332500Y446471D01*
X332426Y446305D01*
X332371Y446110D01*
X332362Y446009D01*
X332352Y445898D01*
Y445842D01*
X332362Y445805D01*
X332371Y445704D01*
X332399Y445583D01*
X332445Y445435D01*
X332510Y445278D01*
X332602Y445130D01*
X332722Y444982D01*
X332741Y444964D01*
X332787Y444927D01*
X332870Y444862D01*
X332981Y444798D01*
X333111Y444724D01*
X333277Y444659D01*
X333471Y444603D01*
X333684Y444576D01*
Y447174D01*
D02*
G37*
G36*
X854375Y165234D02*
X854365D01*
X854347D01*
X854319Y165224D01*
X854282D01*
X854171Y165206D01*
X854051Y165178D01*
X853903Y165132D01*
X853764Y165086D01*
X853626Y165012D01*
X853506Y164928D01*
X853496D01*
X853487Y164910D01*
X853432Y164864D01*
X853358Y164781D01*
X853275Y164670D01*
X853191Y164531D01*
X853117Y164364D01*
X853062Y164170D01*
X853053Y164069D01*
X853043Y163958D01*
Y163902D01*
X853053Y163865D01*
X853062Y163764D01*
X853090Y163643D01*
X853136Y163495D01*
X853201Y163338D01*
X853293Y163190D01*
X853413Y163042D01*
X853432Y163024D01*
X853478Y162987D01*
X853561Y162922D01*
X853672Y162857D01*
X853801Y162784D01*
X853968Y162719D01*
X854162Y162663D01*
X854375Y162636D01*
Y165234D01*
D02*
G37*
G36*
X854384Y223654D02*
X854375D01*
X854356D01*
X854329Y223644D01*
X854292D01*
X854181Y223626D01*
X854060Y223598D01*
X853912Y223552D01*
X853774Y223506D01*
X853635Y223432D01*
X853515Y223349D01*
X853506D01*
X853496Y223330D01*
X853441Y223284D01*
X853367Y223200D01*
X853284Y223090D01*
X853201Y222951D01*
X853127Y222785D01*
X853071Y222590D01*
X853062Y222489D01*
X853053Y222378D01*
Y222322D01*
X853062Y222285D01*
X853071Y222183D01*
X853099Y222063D01*
X853145Y221915D01*
X853210Y221758D01*
X853302Y221610D01*
X853422Y221462D01*
X853441Y221444D01*
X853487Y221407D01*
X853570Y221342D01*
X853681Y221278D01*
X853811Y221203D01*
X853977Y221139D01*
X854171Y221083D01*
X854384Y221056D01*
Y223654D01*
D02*
G37*
%LPD*%
D15*
X818920Y259340D02*
Y279140D01*
X788920D02*
X818920D01*
X788920Y259340D02*
Y279140D01*
Y259340D02*
X818920D01*
M02*
