G04*
G04 #@! TF.GenerationSoftware,Altium Limited,Altium Designer,21.8.1 (53)*
G04*
G04 Layer_Color=16711935*
%FSLAX25Y25*%
%MOIN*%
G70*
G04*
G04 #@! TF.SameCoordinates,DFC464EB-1075-4BFE-916E-F93FBC4A2262*
G04*
G04*
G04 #@! TF.FilePolarity,Positive*
G04*
G01*
G75*
%ADD14C,0.00394*%
%ADD15C,0.00787*%
%ADD59C,0.00500*%
D14*
X34913Y48563D02*
G03*
X34913Y48563I-1181J0D01*
G01*
X178331Y35244D02*
Y40756D01*
X169669Y35244D02*
Y40756D01*
Y35244D02*
X178331D01*
X169669Y40756D02*
X178331D01*
X187744Y91831D02*
X193256D01*
X187744Y83169D02*
X193256D01*
Y91831D01*
X187744Y83169D02*
Y91831D01*
X112244Y83169D02*
Y91831D01*
X117756Y83169D02*
Y91831D01*
X112244Y83169D02*
X117756D01*
X112244Y91831D02*
X117756D01*
X54008Y40492D02*
Y64508D01*
X29992Y40492D02*
Y64508D01*
Y40492D02*
X54008D01*
X29992Y64508D02*
X54008D01*
X110941Y138614D02*
Y165386D01*
X108382Y138614D02*
Y165386D01*
X108382Y138614D02*
X117831D01*
X108382Y165386D02*
X117831D01*
Y138614D02*
Y165386D01*
X154232Y144425D02*
X195768D01*
X154232Y162929D02*
X195768D01*
X154232Y144425D02*
Y162929D01*
X195768Y144425D02*
Y162929D01*
X154232Y158008D02*
X195768D01*
X295256Y84669D02*
Y93331D01*
X289744Y84669D02*
Y93331D01*
X295256D01*
X289744Y84669D02*
X295256D01*
X112244Y39331D02*
X117756D01*
X112244Y30669D02*
X117756D01*
Y39331D01*
X112244Y30669D02*
Y39331D01*
D15*
X138842Y150122D02*
X162465Y126500D01*
X115220D02*
X138842Y150122D01*
X115220Y126500D02*
X138842Y102878D01*
X162465Y126500D01*
D59*
X51449Y52500D02*
G03*
X51449Y52500I-9449J0D01*
G01*
M02*
