G04*
G04 #@! TF.GenerationSoftware,Altium Limited,Altium Designer,21.8.1 (53)*
G04*
G04 Layer_Physical_Order=2*
G04 Layer_Color=16711680*
%FSLAX25Y25*%
%MOIN*%
G70*
G04*
G04 #@! TF.SameCoordinates,DFC464EB-1075-4BFE-916E-F93FBC4A2262*
G04*
G04*
G04 #@! TF.FilePolarity,Positive*
G04*
G01*
G75*
%ADD12C,0.01000*%
%ADD37C,0.06181*%
%ADD43C,0.02000*%
%ADD45C,0.04724*%
%ADD46R,0.04724X0.04724*%
%ADD47C,0.06000*%
%ADD48R,0.06000X0.06000*%
%ADD49C,0.06299*%
%ADD50R,0.06299X0.06299*%
%ADD51C,0.06299*%
%ADD52R,0.06299X0.06299*%
%ADD53C,0.05906*%
%ADD54R,0.05906X0.05906*%
%ADD55R,0.05906X0.05906*%
%ADD56C,0.05512*%
%ADD57C,0.02400*%
D12*
X202500Y66136D02*
Y90000D01*
X190672Y166000D02*
X202500Y154172D01*
X125374Y138374D02*
X153000Y166000D01*
X202500Y90000D02*
Y154172D01*
X153000Y166000D02*
X190672D01*
X10000Y56500D02*
X10348D01*
X37500Y103500D02*
Y127000D01*
X32000Y98000D02*
X37500Y103500D01*
X155500Y176000D02*
X331000D01*
X345000Y190000D01*
X122524Y143024D02*
X155500Y176000D01*
X326500Y181500D02*
X335000Y190000D01*
X56000Y181500D02*
X326500D01*
X43000Y168500D02*
X56000Y181500D01*
X12453Y142453D02*
X44956D01*
X10000Y140000D02*
X12453Y142453D01*
X54500Y130250D02*
X79750D01*
X10250D02*
X54500D01*
X84500Y54000D02*
Y100250D01*
X54500Y130250D02*
X84500Y100250D01*
X10000Y130000D02*
X10250Y130250D01*
X79750D02*
X80000Y130500D01*
X97500Y73000D02*
X142000Y117500D01*
X154000D01*
X165000Y128500D02*
Y151000D01*
X154000Y117500D02*
X165000Y128500D01*
X202000Y39000D02*
X217000D01*
X199462D02*
X202000D01*
X206756Y43756D01*
X202500Y66136D02*
X206756Y61880D01*
Y43756D02*
Y61880D01*
X193600Y33138D02*
X199462Y39000D01*
X187741Y33138D02*
X193600D01*
X184174Y29571D02*
X187741Y33138D01*
X79763Y144756D02*
X86145Y138374D01*
X125374D01*
X47259Y144756D02*
X79763D01*
X44956Y142453D02*
X47259Y144756D01*
X113500Y143024D02*
X122524D01*
X261500Y7000D02*
X272000Y17500D01*
Y36056D01*
D37*
X139000Y172000D02*
D03*
X337500Y61500D02*
D03*
Y84500D02*
D03*
D43*
X10000Y64500D02*
Y110000D01*
Y56500D02*
Y64500D01*
X21000Y53500D01*
X10000Y17000D02*
Y56500D01*
Y17000D02*
X20000Y7000D01*
X337000Y169000D02*
X346500Y159500D01*
Y127500D02*
Y159500D01*
Y21500D02*
Y127500D01*
X289500Y141000D02*
X303000Y127500D01*
X346500D01*
X261500Y7000D02*
X332000D01*
X59000D02*
X261500D01*
X20000D02*
X59000D01*
Y8500D01*
X84500Y34000D01*
X332000Y7000D02*
X346500Y21500D01*
D45*
X191000Y38000D02*
D03*
Y28000D02*
D03*
X84500Y44000D02*
D03*
Y54000D02*
D03*
X339000Y135500D02*
D03*
X329000D02*
D03*
Y117500D02*
D03*
X339000D02*
D03*
X237000Y39000D02*
D03*
Y29000D02*
D03*
X217000D02*
D03*
Y39000D02*
D03*
X216500Y60500D02*
D03*
Y70500D02*
D03*
D46*
X84500Y34000D02*
D03*
D47*
X50750Y168375D02*
D03*
X43000Y168500D02*
D03*
X289500Y141000D02*
D03*
X259972Y170528D02*
D03*
Y111472D02*
D03*
D48*
X35750Y168875D02*
D03*
D49*
X113500Y160976D02*
D03*
Y152000D02*
D03*
D50*
Y143024D02*
D03*
D51*
X175000Y151000D02*
D03*
X185000D02*
D03*
D52*
X165000D02*
D03*
D53*
X315000Y190000D02*
D03*
X325000D02*
D03*
X335000D02*
D03*
X279000Y85000D02*
D03*
X129000Y126500D02*
D03*
X148685D02*
D03*
X10000Y130000D02*
D03*
Y110000D02*
D03*
Y120000D02*
D03*
D54*
X345000Y190000D02*
D03*
D55*
X279000Y95000D02*
D03*
X10000Y140000D02*
D03*
D56*
X202500Y50000D02*
D03*
Y90000D02*
D03*
X80500Y170500D02*
D03*
Y130500D02*
D03*
D57*
X21000Y53500D02*
D03*
X32000Y98000D02*
D03*
X37500Y127000D02*
D03*
X337000Y169000D02*
D03*
X97500Y73000D02*
D03*
X184174Y29571D02*
D03*
X272132Y36056D02*
D03*
M02*
