G04*
G04 #@! TF.GenerationSoftware,Altium Limited,Altium Designer,21.8.1 (53)*
G04*
G04 Layer_Color=65535*
%FSLAX25Y25*%
%MOIN*%
G70*
G04*
G04 #@! TF.SameCoordinates,DFC464EB-1075-4BFE-916E-F93FBC4A2262*
G04*
G04*
G04 #@! TF.FilePolarity,Positive*
G04*
G01*
G75*
%ADD10C,0.00984*%
%ADD11C,0.02362*%
%ADD12C,0.01000*%
%ADD13C,0.00591*%
%ADD14C,0.00394*%
%ADD15C,0.00787*%
D10*
X32256Y38622D02*
G03*
X32256Y38622I-492J0D01*
G01*
X120291Y136843D02*
G03*
X120291Y136843I-492J0D01*
G01*
X152067Y151000D02*
G03*
X152067Y151000I-492J0D01*
G01*
D11*
X33732Y48563D02*
G03*
X33732Y48563I-0J0D01*
G01*
D12*
X52750Y160875D02*
G03*
X33250Y160875I-9750J7314D01*
G01*
X259972Y176472D02*
G03*
X259972Y105972I-257J-35250D01*
G01*
X33250Y160875D02*
X52750D01*
X259972Y105972D02*
X300472D01*
Y176472D01*
X259972D02*
X300472D01*
X160503Y49499D02*
Y43501D01*
X164501D01*
X169500D02*
Y49499D01*
X166501Y46500D01*
X170499D01*
X173498Y47500D02*
X175498D01*
X176497Y46500D01*
Y43501D01*
X173498D01*
X172499Y44501D01*
X173498Y45500D01*
X176497D01*
X175003Y100499D02*
Y94501D01*
X179001D01*
X181001Y99499D02*
X182000Y100499D01*
X184000D01*
X184999Y99499D01*
Y98500D01*
X184000Y97500D01*
X183000D01*
X184000D01*
X184999Y96500D01*
Y95501D01*
X184000Y94501D01*
X182000D01*
X181001Y95501D01*
X186999Y100499D02*
Y94501D01*
X189998D01*
X190997Y95501D01*
Y96500D01*
Y97500D01*
X189998Y98500D01*
X186999D01*
X190599Y51398D02*
X189599Y52398D01*
X187600D01*
X186600Y51398D01*
Y47400D01*
X187600Y46400D01*
X189599D01*
X190599Y47400D01*
X195597Y46400D02*
Y52398D01*
X192598Y49399D01*
X196597D01*
X112700Y102598D02*
Y96600D01*
X116699D01*
X118698Y101598D02*
X119698Y102598D01*
X121697D01*
X122697Y101598D01*
Y100599D01*
X121697Y99599D01*
X120697D01*
X121697D01*
X122697Y98599D01*
Y97600D01*
X121697Y96600D01*
X119698D01*
X118698Y97600D01*
X125696Y100599D02*
X127695D01*
X128695Y99599D01*
Y96600D01*
X125696D01*
X124696Y97600D01*
X125696Y98599D01*
X128695D01*
X324504Y55999D02*
X328503D01*
X326504D01*
Y50001D01*
X333502D02*
X331502D01*
X330502Y51001D01*
Y53000D01*
X331502Y54000D01*
X333502D01*
X334501Y53000D01*
Y52000D01*
X330502D01*
X336501Y50001D02*
X339499D01*
X340499Y51001D01*
X339499Y52000D01*
X337500D01*
X336501Y53000D01*
X337500Y54000D01*
X340499D01*
X343498Y54999D02*
Y54000D01*
X342498D01*
X344498D01*
X343498D01*
Y51001D01*
X344498Y50001D01*
X347497Y54999D02*
X348497Y55999D01*
X350496D01*
X351496Y54999D01*
Y54000D01*
X350496Y53000D01*
X349496D01*
X350496D01*
X351496Y52000D01*
Y51001D01*
X350496Y50001D01*
X348497D01*
X347497Y51001D01*
X324004Y97999D02*
X328003D01*
X326004D01*
Y92001D01*
X333001D02*
X331002D01*
X330002Y93001D01*
Y95000D01*
X331002Y96000D01*
X333001D01*
X334001Y95000D01*
Y94000D01*
X330002D01*
X336000Y92001D02*
X339000D01*
X339999Y93001D01*
X339000Y94000D01*
X337000D01*
X336000Y95000D01*
X337000Y96000D01*
X339999D01*
X342998Y96999D02*
Y96000D01*
X341999D01*
X343998D01*
X342998D01*
Y93001D01*
X343998Y92001D01*
X350996D02*
X346997D01*
X350996Y96000D01*
Y96999D01*
X349996Y97999D01*
X347997D01*
X346997Y96999D01*
X126504Y185999D02*
X130503D01*
X128503D01*
Y180001D01*
X135501D02*
X133502D01*
X132502Y181001D01*
Y183000D01*
X133502Y184000D01*
X135501D01*
X136501Y183000D01*
Y182000D01*
X132502D01*
X138500Y180001D02*
X141499D01*
X142499Y181001D01*
X141499Y182000D01*
X139500D01*
X138500Y183000D01*
X139500Y184000D01*
X142499D01*
X145498Y184999D02*
Y184000D01*
X144498D01*
X146498D01*
X145498D01*
Y181001D01*
X146498Y180001D01*
X149497D02*
X151496D01*
X150496D01*
Y185999D01*
X149497Y184999D01*
X73504Y16501D02*
Y22499D01*
X76503D01*
X77502Y21499D01*
Y19500D01*
X76503Y18500D01*
X73504D01*
X75503D02*
X77502Y16501D01*
X79502Y15501D02*
X83500D01*
X85500Y22499D02*
Y18500D01*
X87499Y16501D01*
X89498Y18500D01*
Y22499D01*
X91498D02*
Y16501D01*
X94497D01*
X95496Y17501D01*
Y21499D01*
X94497Y22499D01*
X91498D01*
X309002Y117499D02*
Y111501D01*
X313000D01*
X318998D02*
X315000D01*
X318998Y115500D01*
Y116499D01*
X317999Y117499D01*
X315999D01*
X315000Y116499D01*
X302999Y92849D02*
X297001D01*
Y88850D01*
X301999Y86851D02*
X298001Y82852D01*
Y86851D02*
X301999Y82852D01*
X300000Y86851D02*
Y82852D01*
X298001Y84851D02*
X301999D01*
X262001Y91999D02*
X260002D01*
X261002D01*
Y87001D01*
X260002Y86001D01*
X259002D01*
X258003Y87001D01*
X267999Y86001D02*
X264001D01*
X267999Y90000D01*
Y90999D01*
X267000Y91999D01*
X265000D01*
X264001Y90999D01*
X269999D02*
X273997Y87001D01*
X269999D02*
X273997Y90999D01*
X269999Y89000D02*
X273997D01*
X271998Y87001D02*
Y90999D01*
X6512Y75999D02*
X10510D01*
X8511D01*
Y70001D01*
X12510Y74000D02*
Y70001D01*
Y72000D01*
X13510Y73000D01*
X14509Y74000D01*
X15509D01*
X19508D02*
X21507D01*
X22507Y73000D01*
Y70001D01*
X19508D01*
X18508Y71001D01*
X19508Y72000D01*
X22507D01*
X24506Y70001D02*
Y74000D01*
X27505D01*
X28505Y73000D01*
Y70001D01*
X30504D02*
X33503D01*
X34503Y71001D01*
X33503Y72000D01*
X31504D01*
X30504Y73000D01*
X31504Y74000D01*
X34503D01*
X37502Y70001D02*
Y74999D01*
Y73000D01*
X36502D01*
X38502D01*
X37502D01*
Y74999D01*
X38502Y75999D01*
X42500Y70001D02*
X44499D01*
X45499Y71001D01*
Y73000D01*
X44499Y74000D01*
X42500D01*
X41500Y73000D01*
Y71001D01*
X42500Y70001D01*
X47499Y74000D02*
Y70001D01*
Y72000D01*
X48498Y73000D01*
X49498Y74000D01*
X50498D01*
X53497Y70001D02*
Y74000D01*
X54496D01*
X55496Y73000D01*
Y70001D01*
Y73000D01*
X56496Y74000D01*
X57495Y73000D01*
Y70001D01*
X62494D02*
X60494D01*
X59495Y71001D01*
Y73000D01*
X60494Y74000D01*
X62494D01*
X63493Y73000D01*
Y72000D01*
X59495D01*
X65493Y74000D02*
Y70001D01*
Y72000D01*
X66492Y73000D01*
X67492Y74000D01*
X68492D01*
X77489Y70001D02*
X79488D01*
X78488D01*
Y75999D01*
X77489Y74999D01*
X239512Y74999D02*
X243511D01*
X241512D01*
Y69001D01*
X245510Y73000D02*
Y69001D01*
Y71000D01*
X246510Y72000D01*
X247510Y73000D01*
X248509D01*
X252508D02*
X254507D01*
X255507Y72000D01*
Y69001D01*
X252508D01*
X251508Y70001D01*
X252508Y71000D01*
X255507D01*
X257506Y69001D02*
Y73000D01*
X260505D01*
X261505Y72000D01*
Y69001D01*
X263504D02*
X266503D01*
X267503Y70001D01*
X266503Y71000D01*
X264504D01*
X263504Y72000D01*
X264504Y73000D01*
X267503D01*
X270502Y69001D02*
Y73999D01*
Y72000D01*
X269502D01*
X271502D01*
X270502D01*
Y73999D01*
X271502Y74999D01*
X275500Y69001D02*
X277500D01*
X278500Y70001D01*
Y72000D01*
X277500Y73000D01*
X275500D01*
X274501Y72000D01*
Y70001D01*
X275500Y69001D01*
X280499Y73000D02*
Y69001D01*
Y71000D01*
X281499Y72000D01*
X282498Y73000D01*
X283498D01*
X286497Y69001D02*
Y73000D01*
X287497D01*
X288496Y72000D01*
Y69001D01*
Y72000D01*
X289496Y73000D01*
X290496Y72000D01*
Y69001D01*
X295494D02*
X293495D01*
X292495Y70001D01*
Y72000D01*
X293495Y73000D01*
X295494D01*
X296494Y72000D01*
Y71000D01*
X292495D01*
X298493Y73000D02*
Y69001D01*
Y71000D01*
X299493Y72000D01*
X300492Y73000D01*
X301492D01*
X314488Y69001D02*
X310489D01*
X314488Y73000D01*
Y73999D01*
X313488Y74999D01*
X311489D01*
X310489Y73999D01*
X199100Y96200D02*
Y102198D01*
X202099D01*
X203099Y101198D01*
Y99199D01*
X202099Y98199D01*
X199100D01*
X201099D02*
X203099Y96200D01*
X205098Y102198D02*
Y96200D01*
X209097D01*
X67001Y149001D02*
Y154999D01*
X70000D01*
X71000Y153999D01*
Y152000D01*
X70000Y151000D01*
X67001D01*
X69001D02*
X71000Y149001D01*
X72999D02*
X74999D01*
X73999D01*
Y154999D01*
X72999Y153999D01*
X107002Y171499D02*
X106002Y172499D01*
X104003D01*
X103003Y171499D01*
Y170500D01*
X104003Y169500D01*
X106002D01*
X107002Y168500D01*
Y167501D01*
X106002Y166501D01*
X104003D01*
X103003Y167501D01*
X113000Y171499D02*
X112000Y172499D01*
X110001D01*
X109001Y171499D01*
Y167501D01*
X110001Y166501D01*
X112000D01*
X113000Y167501D01*
X114999Y166501D02*
Y172499D01*
X117998D01*
X118998Y171499D01*
Y169500D01*
X117998Y168500D01*
X114999D01*
X116999D02*
X118998Y166501D01*
X120997D02*
X122997D01*
X121997D01*
Y172499D01*
X120997Y171499D01*
X174000Y166001D02*
Y169999D01*
X173001Y170999D01*
X171001D01*
X170002Y169999D01*
Y166001D01*
X171001Y165001D01*
X173001D01*
X172001Y167000D02*
X174000Y165001D01*
X173001D02*
X174000Y166001D01*
X179998Y165001D02*
X176000D01*
X179998Y169000D01*
Y169999D01*
X178999Y170999D01*
X176999D01*
X176000Y169999D01*
X43500Y182501D02*
Y186499D01*
X42500Y187499D01*
X40501D01*
X39501Y186499D01*
Y182501D01*
X40501Y181501D01*
X42500D01*
X41501Y183500D02*
X43500Y181501D01*
X42500D02*
X43500Y182501D01*
X45499Y181501D02*
X47499D01*
X46499D01*
Y187499D01*
X45499Y186499D01*
X112700Y50098D02*
Y44100D01*
X116699D01*
X121697D02*
Y50098D01*
X118698Y47099D01*
X122697D01*
X124696Y50098D02*
Y44100D01*
X127695D01*
X128695Y45100D01*
Y46099D01*
Y47099D01*
X127695Y48099D01*
X124696D01*
X135001Y129499D02*
Y123501D01*
X139000D01*
X140999D02*
X142999D01*
X141999D01*
Y129499D01*
X140999Y128499D01*
X21001Y139499D02*
X19002D01*
X20001D01*
Y134501D01*
X19002Y133501D01*
X18002D01*
X17002Y134501D01*
X23000Y133501D02*
X25000D01*
X24000D01*
Y139499D01*
X23000Y138499D01*
X27999D02*
X28999Y139499D01*
X30998D01*
X31998Y138499D01*
Y137500D01*
X30998Y136500D01*
X31998Y135500D01*
Y134501D01*
X30998Y133501D01*
X28999D01*
X27999Y134501D01*
Y135500D01*
X28999Y136500D01*
X27999Y137500D01*
Y138499D01*
X28999Y136500D02*
X30998D01*
X337501Y181999D02*
X335502D01*
X336502D01*
Y177001D01*
X335502Y176001D01*
X334502D01*
X333502Y177001D01*
X339500Y176001D02*
X341500D01*
X340500D01*
Y181999D01*
X339500Y180999D01*
X344499Y181999D02*
X348498D01*
Y180999D01*
X344499Y177001D01*
Y176001D01*
X236599Y52398D02*
X235599Y53398D01*
X233600D01*
X232600Y52398D01*
Y48400D01*
X233600Y47400D01*
X235599D01*
X236599Y48400D01*
X242597Y53398D02*
X238598D01*
Y50399D01*
X240597Y51399D01*
X241597D01*
X242597Y50399D01*
Y48400D01*
X241597Y47400D01*
X239598D01*
X238598Y48400D01*
X244596Y53398D02*
Y47400D01*
X247595D01*
X248595Y48400D01*
Y49399D01*
Y50399D01*
X247595Y51399D01*
X244596D01*
X216599Y52398D02*
X215599Y53398D01*
X213600D01*
X212600Y52398D01*
Y48400D01*
X213600Y47400D01*
X215599D01*
X216599Y48400D01*
X222597Y53398D02*
X218598D01*
Y50399D01*
X220597Y51399D01*
X221597D01*
X222597Y50399D01*
Y48400D01*
X221597Y47400D01*
X219598D01*
X218598Y48400D01*
X225596Y51399D02*
X227595D01*
X228595Y50399D01*
Y47400D01*
X225596D01*
X224596Y48400D01*
X225596Y49399D01*
X228595D01*
X216099Y83898D02*
X215099Y84898D01*
X213100D01*
X212100Y83898D01*
Y79900D01*
X213100Y78900D01*
X215099D01*
X216099Y79900D01*
X218098Y83898D02*
X219098Y84898D01*
X221097D01*
X222097Y83898D01*
Y82899D01*
X221097Y81899D01*
X220097D01*
X221097D01*
X222097Y80899D01*
Y79900D01*
X221097Y78900D01*
X219098D01*
X218098Y79900D01*
X330501Y127999D02*
X329502Y128999D01*
X327502D01*
X326503Y127999D01*
Y124001D01*
X327502Y123001D01*
X329502D01*
X330501Y124001D01*
X336499Y123001D02*
X332501D01*
X336499Y127000D01*
Y127999D01*
X335500Y128999D01*
X333500D01*
X332501Y127999D01*
X338499Y128999D02*
Y123001D01*
X341498D01*
X342497Y124001D01*
Y125000D01*
Y126000D01*
X341498Y127000D01*
X338499D01*
X330001Y145999D02*
X329002Y146999D01*
X327002D01*
X326003Y145999D01*
Y142001D01*
X327002Y141001D01*
X329002D01*
X330001Y142001D01*
X335999Y141001D02*
X332001D01*
X335999Y145000D01*
Y145999D01*
X335000Y146999D01*
X333000D01*
X332001Y145999D01*
X338998Y145000D02*
X340998D01*
X341997Y144000D01*
Y141001D01*
X338998D01*
X337999Y142001D01*
X338998Y143000D01*
X341997D01*
X262000Y142999D02*
X261000Y143999D01*
X259001D01*
X258001Y142999D01*
Y139001D01*
X259001Y138001D01*
X261000D01*
X262000Y139001D01*
X263999Y138001D02*
X265999D01*
X264999D01*
Y143999D01*
X263999Y142999D01*
D13*
X144295Y172000D02*
G03*
X144295Y172000I-5295J0D01*
G01*
X342795Y61500D02*
G03*
X342795Y61500I-5295J0D01*
G01*
Y84500D02*
G03*
X342795Y84500I-5295J0D01*
G01*
D14*
X266441Y61106D02*
G03*
X266441Y61500I0J197D01*
G01*
D02*
G03*
X266441Y61106I0J-197D01*
G01*
D15*
X154197Y126500D02*
G03*
X154197Y126500I-15354J0D01*
G01*
X186000Y43000D02*
X196000D01*
Y23000D02*
Y43000D01*
X186000Y23000D02*
X196000D01*
X186000D02*
Y43000D01*
X74500Y24000D02*
X94500D01*
Y69000D01*
X84500D02*
X94500D01*
X84500Y64000D02*
Y69000D01*
X74500Y64000D02*
X84500D01*
X74500Y24000D02*
Y64000D01*
X108382Y165386D02*
X109563D01*
X108382Y138614D02*
X109563D01*
X108382D02*
Y165386D01*
X108736Y138614D02*
Y165386D01*
X117831Y147079D02*
Y147866D01*
Y156134D02*
Y156921D01*
Y165189D02*
Y165386D01*
Y138614D02*
Y138811D01*
X154134Y144425D02*
Y162929D01*
X195866Y144425D02*
Y162929D01*
X154134Y144425D02*
X195866D01*
X154134Y162929D02*
X195866D01*
X154134Y160961D02*
X195866D01*
X350000Y185000D02*
Y195000D01*
X310000Y185000D02*
X350000D01*
X310000Y195000D02*
X350000D01*
X310000Y185000D02*
Y195000D01*
X325500Y103094D02*
Y109906D01*
X284000Y80000D02*
Y100000D01*
X274000D02*
X284000D01*
X274000Y80000D02*
Y100000D01*
Y80000D02*
X284000D01*
X324000Y130500D02*
X344000D01*
Y140500D01*
X324000D02*
X344000D01*
X324000Y130500D02*
Y140500D01*
Y112500D02*
Y122500D01*
X344000D01*
Y112500D02*
Y122500D01*
X324000Y112500D02*
X344000D01*
X312209Y35161D02*
Y38114D01*
X275791Y35161D02*
X312209D01*
X275791D02*
Y38114D01*
X312209Y64886D02*
Y67839D01*
X275791D02*
X312209D01*
X275791Y64886D02*
Y67839D01*
X198500Y58000D02*
X206500D01*
X198500D02*
Y82000D01*
X206500D01*
Y58000D02*
Y82000D01*
X202500Y54000D02*
Y58000D01*
Y82000D02*
Y86000D01*
X76500Y162500D02*
X84500D01*
Y138500D02*
Y162500D01*
X76500Y138500D02*
X84500D01*
X76500D02*
Y162500D01*
X80500D02*
Y166500D01*
Y134500D02*
Y138500D01*
X5000Y105000D02*
X15000D01*
X5000D02*
Y145000D01*
X15000Y105000D02*
Y145000D01*
X5000D02*
X15000D01*
X232000Y44000D02*
X242000D01*
Y24000D02*
Y44000D01*
X232000Y24000D02*
X242000D01*
X232000D02*
Y44000D01*
X212000Y24000D02*
Y44000D01*
Y24000D02*
X222000D01*
Y44000D01*
X212000D02*
X222000D01*
X211500Y55500D02*
Y75500D01*
Y55500D02*
X221500D01*
Y75500D01*
X211500D02*
X221500D01*
M02*
