G04*
G04 #@! TF.GenerationSoftware,Altium Limited,Altium Designer,21.8.1 (53)*
G04*
G04 Layer_Physical_Order=2*
G04 Layer_Color=16711680*
%FSLAX44Y44*%
%MOMM*%
G71*
G04*
G04 #@! TF.SameCoordinates,18E747F8-F2A1-401C-BF7A-ED7554101EA9*
G04*
G04*
G04 #@! TF.FilePolarity,Positive*
G04*
G01*
G75*
%ADD12C,0.2540*%
%ADD37C,1.5700*%
%ADD43C,0.5080*%
%ADD45C,1.2000*%
%ADD46R,1.2000X1.2000*%
%ADD47C,1.5240*%
%ADD48R,1.5240X1.5240*%
%ADD49C,1.6000*%
%ADD50R,1.6000X1.6000*%
%ADD51C,1.6000*%
%ADD52R,1.6000X1.6000*%
%ADD53C,1.5000*%
%ADD54R,1.5000X1.5000*%
%ADD55R,1.5000X1.5000*%
%ADD56C,1.4000*%
%ADD57C,0.6096*%
D12*
X514350Y167986D02*
Y228600D01*
X484306Y421640D02*
X514350Y391596D01*
X318450Y351470D02*
X388620Y421640D01*
X514350Y228600D02*
Y391596D01*
X388620Y421640D02*
X484306D01*
X25400Y143510D02*
X26284D01*
X95250Y262890D02*
Y322580D01*
X81280Y248920D02*
X95250Y262890D01*
X394970Y447040D02*
X840740D01*
X876300Y482600D01*
X311210Y363280D02*
X394970Y447040D01*
X829310Y461010D02*
X850900Y482600D01*
X142240Y461010D02*
X829310D01*
X109220Y427990D02*
X142240Y461010D01*
X31630Y361830D02*
X114189D01*
X25400Y355600D02*
X31630Y361830D01*
X138430Y330835D02*
X202565D01*
X26035D02*
X138430D01*
X214630Y137160D02*
Y254635D01*
X138430Y330835D02*
X214630Y254635D01*
X25400Y330200D02*
X26035Y330835D01*
X202565D02*
X203200Y331470D01*
X247650Y185420D02*
X360680Y298450D01*
X391160D01*
X419100Y326390D02*
Y383540D01*
X391160Y298450D02*
X419100Y326390D01*
X513080Y99060D02*
X551180D01*
X506633D02*
X513080D01*
X525160Y111140D01*
X514350Y167986D02*
X525160Y157176D01*
Y111140D02*
Y157176D01*
X491743Y84170D02*
X506633Y99060D01*
X476861Y84170D02*
X491743D01*
X467802Y75111D02*
X476861Y84170D01*
X202598Y367680D02*
X218808Y351470D01*
X318450D01*
X120039Y367680D02*
X202598D01*
X114189Y361830D02*
X120039Y367680D01*
X288290Y363280D02*
X311210D01*
X664210Y17780D02*
X690880Y44450D01*
Y91582D01*
D37*
X353060Y436880D02*
D03*
X857250Y156210D02*
D03*
Y214630D02*
D03*
D43*
X25400Y163830D02*
Y279400D01*
Y143510D02*
Y163830D01*
X53340Y135890D01*
X25400Y43180D02*
Y143510D01*
Y43180D02*
X50800Y17780D01*
X855980Y429260D02*
X880110Y405130D01*
Y323850D02*
Y405130D01*
Y54610D02*
Y323850D01*
X735330Y358140D02*
X769620Y323850D01*
X880110D01*
X664210Y17780D02*
X843280D01*
X149860D02*
X664210D01*
X50800D02*
X149860D01*
Y21590D01*
X214630Y86360D01*
X843280Y17780D02*
X880110Y54610D01*
D45*
X485140Y96520D02*
D03*
Y71120D02*
D03*
X214630Y111760D02*
D03*
Y137160D02*
D03*
X861060Y344170D02*
D03*
X835660D02*
D03*
Y298450D02*
D03*
X861060D02*
D03*
X601980Y99060D02*
D03*
Y73660D02*
D03*
X551180D02*
D03*
Y99060D02*
D03*
X549910Y153670D02*
D03*
Y179070D02*
D03*
D46*
X214630Y86360D02*
D03*
D47*
X128905Y427673D02*
D03*
X109220Y427990D02*
D03*
X735330Y358140D02*
D03*
X660330Y433140D02*
D03*
Y283140D02*
D03*
D48*
X90805Y428942D02*
D03*
D49*
X288290Y408880D02*
D03*
Y386080D02*
D03*
D50*
Y363280D02*
D03*
D51*
X444500Y383540D02*
D03*
X469900D02*
D03*
D52*
X419100D02*
D03*
D53*
X800100Y482600D02*
D03*
X825500D02*
D03*
X850900D02*
D03*
X708660Y215900D02*
D03*
X327660Y321310D02*
D03*
X377660D02*
D03*
X25400Y330200D02*
D03*
Y279400D02*
D03*
Y304800D02*
D03*
D54*
X876300Y482600D02*
D03*
D55*
X708660Y241300D02*
D03*
X25400Y355600D02*
D03*
D56*
X514350Y127000D02*
D03*
Y228600D02*
D03*
X204470Y433070D02*
D03*
Y331470D02*
D03*
D57*
X53340Y135890D02*
D03*
X81280Y248920D02*
D03*
X95250Y322580D02*
D03*
X855980Y429260D02*
D03*
X247650Y185420D02*
D03*
X467802Y75111D02*
D03*
X691215Y91582D02*
D03*
M02*
