G04*
G04 #@! TF.GenerationSoftware,Altium Limited,Altium Designer,21.8.1 (53)*
G04*
G04 Layer_Color=8421504*
%FSLAX44Y44*%
%MOMM*%
G71*
G04*
G04 #@! TF.SameCoordinates,18E747F8-F2A1-401C-BF7A-ED7554101EA9*
G04*
G04*
G04 #@! TF.FilePolarity,Positive*
G04*
G01*
G75*
%ADD16R,1.5240X0.7620*%
%ADD17R,0.5080X1.5240*%
%ADD18R,0.7620X1.5240*%
%ADD19R,1.2000X1.4000*%
%ADD20R,1.4000X1.2000*%
%ADD21R,1.0200X1.7800*%
%ADD22R,1.8300X1.0900*%
G36*
X87723Y117343D02*
X102517Y108945D01*
Y103357D01*
X89843Y103343D01*
X87723D01*
X87716Y103350D01*
X80180D01*
X76680Y106850D01*
Y117350D01*
X87716D01*
X87723Y117343D01*
D02*
G37*
G36*
X136652Y116586D02*
Y114466D01*
Y103466D01*
X122652D01*
Y114466D01*
X131050Y129261D01*
X136638D01*
X136652Y116586D01*
D02*
G37*
G36*
X90820Y152400D02*
X82422Y137605D01*
X76834D01*
X76820Y150280D01*
Y152400D01*
Y163400D01*
X90820D01*
Y152400D01*
D02*
G37*
G36*
X136730Y149210D02*
X125730D01*
X110935Y157608D01*
Y163196D01*
X123610Y163210D01*
X136730D01*
Y149210D01*
D02*
G37*
D16*
X89154Y107696D02*
D03*
X128778Y159004D02*
D03*
D03*
X89154Y107696D02*
D03*
D17*
X132080Y113030D02*
D03*
D03*
D18*
X81026Y155194D02*
D03*
D03*
D19*
X449960Y96520D02*
D03*
X433960D02*
D03*
D20*
X483870Y230250D02*
D03*
Y214250D02*
D03*
X292100D02*
D03*
Y230250D02*
D03*
X742950Y234060D02*
D03*
Y218060D02*
D03*
X292100Y96900D02*
D03*
Y80900D02*
D03*
D21*
X817870Y270510D02*
D03*
X835670D02*
D03*
D22*
X802960Y156210D02*
D03*
Y130810D02*
D03*
Y105410D02*
D03*
X690560D02*
D03*
Y130810D02*
D03*
Y156210D02*
D03*
M02*
