G04*
G04 #@! TF.GenerationSoftware,Altium Limited,Altium Designer,21.8.1 (53)*
G04*
G04 Layer_Color=16711935*
%FSLAX44Y44*%
%MOMM*%
G71*
G04*
G04 #@! TF.SameCoordinates,18E747F8-F2A1-401C-BF7A-ED7554101EA9*
G04*
G04*
G04 #@! TF.FilePolarity,Positive*
G04*
G01*
G75*
%ADD14C,0.1000*%
%ADD15C,0.2000*%
%ADD59C,0.1270*%
D14*
X88680Y123350D02*
G03*
X88680Y123350I-3000J0D01*
G01*
X452960Y89520D02*
Y103520D01*
X430960Y89520D02*
Y103520D01*
Y89520D02*
X452960D01*
X430960Y103520D02*
X452960D01*
X476870Y233250D02*
X490870D01*
X476870Y211250D02*
X490870D01*
Y233250D01*
X476870Y211250D02*
Y233250D01*
X285100Y211250D02*
Y233250D01*
X299100Y211250D02*
Y233250D01*
X285100Y211250D02*
X299100D01*
X285100Y233250D02*
X299100D01*
X137180Y102850D02*
Y163850D01*
X76180Y102850D02*
Y163850D01*
Y102850D02*
X137180D01*
X76180Y163850D02*
X137180D01*
X281790Y352080D02*
Y420080D01*
X275290Y352080D02*
Y420080D01*
X275290Y352080D02*
X299290D01*
X275290Y420080D02*
X299290D01*
Y352080D02*
Y420080D01*
X391750Y366840D02*
X497250D01*
X391750Y413840D02*
X497250D01*
X391750Y366840D02*
Y413840D01*
X497250Y366840D02*
Y413840D01*
X391750Y401340D02*
X497250D01*
X749950Y215060D02*
Y237060D01*
X735950Y215060D02*
Y237060D01*
X749950D01*
X735950Y215060D02*
X749950D01*
X285100Y99900D02*
X299100D01*
X285100Y77900D02*
X299100D01*
Y99900D01*
X285100Y77900D02*
Y99900D01*
D15*
X352660Y381310D02*
X412660Y321310D01*
X292660D02*
X352660Y381310D01*
X292660Y321310D02*
X352660Y261310D01*
X412660Y321310D01*
D59*
X130680Y133350D02*
G03*
X130680Y133350I-24000J0D01*
G01*
M02*
