G04*
G04 #@! TF.GenerationSoftware,Altium Limited,Altium Designer,21.8.1 (53)*
G04*
G04 Layer_Color=16711935*
%FSLAX25Y25*%
%MOIN*%
G70*
G04*
G04 #@! TF.SameCoordinates,DFC464EB-1075-4BFE-916E-F93FBC4A2262*
G04*
G04*
G04 #@! TF.FilePolarity,Negative*
G04*
G01*
G75*
%ADD29C,0.05524*%
%ADD30R,0.05524X0.05524*%
%ADD31C,0.06800*%
%ADD32R,0.06800X0.06800*%
%ADD33C,0.07099*%
%ADD34R,0.07099X0.07099*%
%ADD35C,0.07099*%
%ADD36R,0.07099X0.07099*%
%ADD37C,0.06181*%
%ADD38C,0.06706*%
%ADD39R,0.06706X0.06706*%
%ADD40R,0.06706X0.06706*%
%ADD41C,0.06312*%
%ADD42C,0.03200*%
D29*
X191000Y38000D02*
D03*
Y28000D02*
D03*
X84500Y44000D02*
D03*
Y54000D02*
D03*
X339000Y135500D02*
D03*
X329000D02*
D03*
Y117500D02*
D03*
X339000D02*
D03*
X237000Y39000D02*
D03*
Y29000D02*
D03*
X217000D02*
D03*
Y39000D02*
D03*
X216500Y60500D02*
D03*
Y70500D02*
D03*
D30*
X84500Y34000D02*
D03*
D31*
X50750Y168375D02*
D03*
X43000Y168500D02*
D03*
X289500Y141000D02*
D03*
X259972Y170528D02*
D03*
Y111472D02*
D03*
D32*
X35750Y168875D02*
D03*
D33*
X113500Y160976D02*
D03*
Y152000D02*
D03*
D34*
Y143024D02*
D03*
D35*
X175000Y151000D02*
D03*
X185000D02*
D03*
D36*
X165000D02*
D03*
D37*
X139000Y172000D02*
D03*
X337500Y61500D02*
D03*
Y84500D02*
D03*
D38*
X315000Y190000D02*
D03*
X325000D02*
D03*
X335000D02*
D03*
X279000Y85000D02*
D03*
X129000Y126500D02*
D03*
X148685D02*
D03*
X10000Y130000D02*
D03*
Y110000D02*
D03*
Y120000D02*
D03*
D39*
X345000Y190000D02*
D03*
D40*
X279000Y95000D02*
D03*
X10000Y140000D02*
D03*
D41*
X202500Y50000D02*
D03*
Y90000D02*
D03*
X80500Y170500D02*
D03*
Y130500D02*
D03*
D42*
X21000Y53500D02*
D03*
X32000Y98000D02*
D03*
X37500Y127000D02*
D03*
X337000Y169000D02*
D03*
X97500Y73000D02*
D03*
X184174Y29571D02*
D03*
X272132Y36056D02*
D03*
M02*
