G04*
G04 #@! TF.GenerationSoftware,Altium Limited,Altium Designer,21.8.1 (53)*
G04*
G04 Layer_Color=32896*
%FSLAX25Y25*%
%MOIN*%
G70*
G04*
G04 #@! TF.SameCoordinates,DFC464EB-1075-4BFE-916E-F93FBC4A2262*
G04*
G04*
G04 #@! TF.FilePolarity,Positive*
G04*
G01*
G75*
%ADD12C,0.01000*%
%ADD14C,0.00394*%
%ADD58C,0.00600*%
D12*
X-12000Y110000D02*
X-10000Y104000D01*
X-14000D02*
X-12000Y110000D01*
X-14000Y6000D02*
X-12000Y0D01*
X-10000Y6000D01*
X-12000Y73494D02*
Y110000D01*
Y0D02*
Y33306D01*
X-13000Y110000D02*
X5647D01*
X-13000Y0D02*
X0D01*
D14*
X264335Y31224D02*
Y71776D01*
Y31224D02*
X323665D01*
Y71776D01*
X264335D02*
X323665D01*
D58*
X-8401Y34906D02*
Y36905D01*
Y35906D01*
X-14399D01*
X-13399Y34906D01*
X-8401Y39904D02*
Y41904D01*
Y40904D01*
X-14399D01*
X-13399Y39904D01*
Y44903D02*
X-14399Y45902D01*
Y47902D01*
X-13399Y48901D01*
X-9401D01*
X-8401Y47902D01*
Y45902D01*
X-9401Y44903D01*
X-13399D01*
Y50901D02*
X-14399Y51901D01*
Y53900D01*
X-13399Y54900D01*
X-9401D01*
X-8401Y53900D01*
Y51901D01*
X-9401Y50901D01*
X-13399D01*
X-8401Y56899D02*
X-9401D01*
Y57898D01*
X-8401D01*
Y56899D01*
X-13399Y61897D02*
X-14399Y62897D01*
Y64896D01*
X-13399Y65896D01*
X-9401D01*
X-8401Y64896D01*
Y62897D01*
X-9401Y61897D01*
X-13399D01*
Y67895D02*
X-14399Y68895D01*
Y70894D01*
X-13399Y71894D01*
X-9401D01*
X-8401Y70894D01*
Y68895D01*
X-9401Y67895D01*
X-13399D01*
M02*
